<?xml version="1.0" encoding="UTF-8"?>
<!-- Generated by jsxcad -->
<!DOCTYPE svg PUBLIC "-//W3C//DTD SVG 1.1 Tiny//EN" "http://www.w3.org/Graphics/SVG/1.1/DTD/svg11-tiny.dtd">
<svg baseProfile="tiny" height="145.61444mm" width="149.62500mm" viewBox="-0.00000 19.68479 149.62500 145.61444" version="1.1" stroke="black" stroke-width=".1" fill="none" xmlns="http://www.w3.org/2000/svg">
<path fill="#000000" stroke="#000000" d="M122.68380 87.86247 L123.26537 88.09327 L123.84432 88.34655 L124.42060 88.62068 L124.99414 88.91443 L125.56483 89.22687 L125.42821 90.41834 L124.80162 90.59349 L124.17647 90.74980 L123.55310 90.88638 L122.93185 91.00204 L122.31313 91.09523 L122.16700 92.06556 L122.10036 92.47560 L122.66229 92.75077 L123.21988 93.04815 L123.77319 93.36610 L124.32224 93.70340 L124.86701 94.05911 L124.63849 95.23642 L124.00021 95.36250 L123.36484 95.46991 L122.73276 95.55777 L122.10441 95.62495 L121.48033 95.66992 L121.26828 96.58914 L121.17032 96.99285 L121.70945 97.31039 L122.24254 97.64974 L122.76978 98.00927 L123.29128 98.38777 L123.80710 98.78430 L123.48879 99.94056 L122.84270 100.01721 L122.20096 100.07548 L121.56399 100.11451 L120.93234 100.13320 L120.30665 100.13008 L120.04634 100.96258 L119.91812 101.35772 L120.43168 101.71514 L120.93755 102.09385 L121.43608 102.49225 L121.92745 102.90913 L122.41179 103.34355 L122.00690 104.47241 L121.35686 104.49996 L120.71255 104.50949 L120.07446 104.50021 L119.44320 104.47106 L118.81954 104.42060 L118.45021 105.34577 L118.29166 105.72974 L118.77588 106.12601 L119.25080 106.54289 L119.71685 106.97883 L120.17433 107.43264 L120.62344 107.90339 L120.13202 108.99737 L119.48182 108.97430 L118.83871 108.93373 L118.20327 108.87488 L117.57619 108.79676 L116.95834 108.69797 L116.54023 109.54781 L116.35262 109.91845 L116.80493 110.35078 L117.24637 110.80296 L117.67751 111.27345 L118.09874 111.76110 L118.51031 112.26500 L117.93622 113.31794 L117.28971 113.24494 L116.65163 113.15502 L116.02259 113.04748 L115.40338 112.92135 L114.79496 112.77534 L114.36211 113.50836 L114.14712 113.86382 L114.56558 114.32899 L114.97171 114.81313 L115.36619 115.31476 L115.74949 115.83275 L116.12194 116.36621 L115.47017 117.37293 L114.83100 117.25144 L114.20150 117.11372 L113.58235 116.95910 L112.97440 116.78670 L112.37870 116.59528 L111.80999 117.40903 L111.56804 117.74671 L111.94911 118.24298 L112.31641 118.75720 L112.67073 119.28796 L113.01264 119.83415 L113.34253 120.39493 L112.61454 121.34798 L111.98673 121.17721 L111.36983 120.99102 L110.76457 120.78878 L110.17184 120.56968 L109.59281 120.33256 L109.04335 121.00284 L108.77657 121.32128 L109.11904 121.84492 L109.44643 122.38543 L109.75963 122.94145 L110.05929 123.51192 L110.34585 124.09603 L109.54792 124.99133 L108.93481 124.77361 L108.33375 124.54133 L107.74550 124.29392 L107.17102 124.03065 L106.61157 123.75046 L106.00730 124.38320 L105.71718 124.68052 L106.01902 125.22859 L106.30455 125.79234 L106.57476 126.37047 L106.83036 126.96199 L107.07188 127.56612 L106.20845 128.39844 L105.61359 128.13493 L105.03183 127.85780 L104.46400 127.56657 L103.91111 127.26056 L103.37448 126.93881 L102.63524 127.60255 L102.32290 127.87644 L102.58126 128.44630 L102.82213 129.03053 L103.04661 129.62790 L103.25549 130.23749 L103.44935 130.85856 L102.52387 131.62129 L101.95128 131.31236 L101.39281 130.99088 L100.84932 130.65642 L100.32187 130.30838 L99.81185 129.94592 L99.14566 130.45780 L98.81362 130.70745 L99.02843 131.29512 L99.22473 131.89578 L99.40369 132.50833 L99.56618 133.13190 L99.71283 133.76577 L98.73267 134.45682 L98.18490 134.10574 L97.65217 133.74321 L97.13534 133.36886 L96.63553 132.98218 L96.15418 132.58242 L95.34271 133.11278 L94.99237 133.33601 L95.16112 133.93852 L95.31041 134.55256 L95.44150 135.17711 L95.55531 135.81137 L95.65254 136.45468 L94.62189 137.06791 L94.10290 136.67555 L93.59977 136.27293 L93.11342 135.85976 L92.64499 135.43561 L92.19598 134.99985 L91.36894 135.45353 L91.00248 135.64919 L91.12443 136.26288 L91.22609 136.88658 L91.30880 137.51936 L91.37353 138.16049 L91.42104 138.80937 L90.34632 139.34158 L89.85901 138.91050 L89.38831 138.47041 L88.93515 138.02108 L88.50070 137.56219 L88.08650 137.09321 L87.19873 137.49453 L86.81823 137.66125 L86.89234 138.28254 L86.94544 138.91223 L86.97895 139.54951 L86.99389 140.19372 L86.99105 140.84433 L85.87838 141.29181 L85.42588 140.82432 L84.99064 140.34913 L84.57360 139.86610 L84.17595 139.37497 L83.79928 138.87535 L83.02366 139.15703 L82.63174 139.29479 L82.65912 139.91989 L82.66492 140.55179 L82.65061 141.18979 L82.61727 141.83331 L82.56572 142.48188 L81.42266 142.84478 L81.00644 142.34472 L80.60801 141.83827 L80.22831 141.32537 L79.86855 140.80584 L79.53035 140.27942 L78.57909 140.54479 L78.17767 140.65172 L78.15647 141.27706 L78.11323 141.90751 L78.04946 142.54247 L77.96630 143.18147 L77.86458 143.82409 L76.69681 144.09721 L76.32065 143.56636 L75.96271 143.03053 L75.62394 142.48971 L75.30558 141.94384 L75.00924 141.39277 L74.12584 141.56735 L73.71745 141.64341 L73.64870 142.26532 L73.55758 142.89065 L73.44566 143.51891 L73.31408 144.14972 L73.16373 144.78273 L71.97856 144.96615 L71.64390 144.40820 L71.32780 143.84668 L71.03120 143.28163 L70.75532 142.71311 L70.50179 142.14107 L69.58090 142.25088 L69.16788 142.29544 L69.05170 142.91026 L68.91296 143.52677 L68.75325 144.14462 L68.57375 144.76350 L68.37537 145.38314 L67.17963 145.47525 L66.88868 144.89331 L66.61651 144.30923 L66.36405 143.72313 L66.13252 143.13515 L65.92355 142.54538 L64.98337 142.58480 L64.56815 142.59751 L64.40509 143.20158 L64.21941 143.80562 L64.01271 144.40938 L63.78621 145.01264 L63.54082 145.61521 L62.34154 145.61521 L62.09615 145.01264 L61.86964 144.40938 L61.66294 143.80562 L61.47726 143.20158 L61.31421 142.59751 L60.37378 142.56460 L59.95881 142.54538 L59.74983 143.13515 L59.51830 143.72313 L59.26584 144.30923 L58.99367 144.89331 L58.70272 145.47525 L57.50698 145.38314 L57.30860 144.76350 L57.12910 144.14462 L56.96939 143.52677 L56.83065 142.91026 L56.71448 142.29544 L55.79285 142.19202 L55.38056 142.14107 L55.12704 142.71311 L54.85116 143.28163 L54.55456 143.84668 L54.23845 144.40820 L53.90379 144.96615 L52.71862 144.78273 L52.56827 144.14972 L52.43669 143.51891 L52.32477 142.89065 L52.23365 142.26532 L52.16490 141.64341 L51.28032 141.47495 L50.87312 141.39277 L50.57677 141.94384 L50.25841 142.48971 L49.91965 143.03053 L49.56171 143.56636 L49.18554 144.09721 L48.01777 143.82409 L47.91606 143.18147 L47.83289 142.54247 L47.76912 141.90751 L47.72588 141.27706 L47.70468 140.65172 L46.75161 140.39295 L46.35200 140.27942 L46.01380 140.80584 L45.65404 141.32537 L45.27435 141.83827 L44.87591 142.34472 L44.45969 142.84478 L43.31664 142.48188 L43.26508 141.83331 L43.23174 141.18979 L43.21743 140.55179 L43.22323 139.91989 L43.25061 139.29479 L42.47306 139.01849 L42.08308 138.87535 L41.70640 139.37497 L41.30875 139.86610 L40.89171 140.34913 L40.45647 140.82432 L40.00398 141.29181 L38.89130 140.84433 L38.88846 140.19372 L38.90340 139.54951 L38.93691 138.91223 L38.99001 138.28254 L39.06412 137.66125 L38.17359 137.26609 L37.79585 137.09321 L37.38165 137.56219 L36.94720 138.02108 L36.49404 138.47041 L36.02334 138.91050 L35.53604 139.34158 L34.46132 138.80937 L34.50882 138.16049 L34.57355 137.51936 L34.65626 136.88658 L34.75792 136.26288 L34.87987 135.64919 L34.04971 135.20125 L33.68637 134.99985 L33.23736 135.43561 L32.76893 135.85976 L32.28258 136.27293 L31.77945 136.67555 L31.26046 137.06791 L30.22982 136.45468 L30.32704 135.81137 L30.44086 135.17711 L30.57194 134.55256 L30.72123 133.93852 L30.88999 133.33601 L30.07485 132.81130 L29.72817 132.58242 L29.24682 132.98218 L28.74701 133.36886 L28.23019 133.74321 L27.69745 134.10574 L27.14969 134.45682 L26.16952 133.76577 L26.31617 133.13190 L26.47866 132.50833 L26.65762 131.89578 L26.85392 131.29512 L27.06873 130.70745 L26.39901 130.20020 L26.07051 129.94592 L25.56049 130.30838 L25.03304 130.65642 L24.48954 130.99088 L23.93108 131.31236 L23.35848 131.62129 L22.43301 130.85856 L22.62687 130.23749 L22.83575 129.62790 L23.06023 129.03053 L23.30110 128.44630 L23.55945 127.87644 L22.81564 127.21784 L22.50788 126.93881 L21.97124 127.26056 L21.41835 127.56657 L20.85052 127.85780 L20.26877 128.13493 L19.67391 128.39844 L18.81047 127.56612 L19.05200 126.96199 L19.30760 126.37047 L19.57780 125.79234 L19.86333 125.22859 L20.16518 124.68052 L19.55654 124.05198 L19.27078 123.75046 L18.71133 124.03065 L18.13686 124.29392 L17.54861 124.54133 L16.94754 124.77361 L16.33444 124.99133 L15.53650 124.09603 L15.82307 123.51192 L16.12272 122.94145 L16.43592 122.38543 L16.76331 121.84492 L17.10578 121.32128 L16.55169 120.65482 L16.28954 120.33256 L15.71051 120.56968 L15.11778 120.78878 L14.51252 120.99102 L13.89562 121.17721 L13.26781 121.34798 L12.53982 120.39493 L12.86971 119.83415 L13.21162 119.28796 L13.56595 118.75720 L13.93325 118.24298 L14.31432 117.74671 L13.73998 116.93692 L13.50365 116.59528 L12.90795 116.78670 L12.30000 116.95910 L11.68085 117.11372 L11.05136 117.25144 L10.41218 117.37293 L9.76041 116.36621 L10.13286 115.83275 L10.51616 115.31476 L10.91064 114.81313 L11.31677 114.32899 L11.73524 113.86382 L11.29732 113.13381 L11.08739 112.77534 L10.47897 112.92135 L9.85976 113.04748 L9.23073 113.15502 L8.59264 113.24494 L7.94614 113.31794 L7.37204 112.26500 L7.78361 111.76110 L8.20484 111.27345 L8.63598 110.80296 L9.07742 110.35078 L9.52973 109.91845 L9.10575 109.07153 L8.92401 108.69797 L8.30616 108.79676 L7.67908 108.87488 L7.04364 108.93373 L6.40054 108.97430 L5.75033 108.99737 L5.25892 107.90339 L5.70802 107.43264 L6.16551 106.97883 L6.63156 106.54289 L7.10647 106.12601 L7.59069 105.72974 L7.21496 104.80715 L7.06281 104.42060 L6.43915 104.47106 L5.80790 104.50021 L5.16981 104.50949 L4.52549 104.49996 L3.87546 104.47241 L3.47056 103.34355 L3.95490 102.90913 L4.44627 102.49225 L4.94480 102.09385 L5.45067 101.71514 L5.96423 101.35772 L5.69816 100.52703 L5.57570 100.13008 L4.95001 100.13320 L4.31836 100.11451 L3.68140 100.07548 L3.03965 100.01721 L2.39356 99.94056 L2.07525 98.78430 L2.59107 98.38777 L3.11258 98.00927 L3.63982 97.64974 L4.17290 97.31039 L4.71203 96.99285 L4.49362 96.07511 L4.40202 95.66992 L3.77794 95.62495 L3.14960 95.55777 L2.51752 95.46991 L1.88214 95.36250 L1.24386 95.23642 L1.01534 94.05911 L1.56011 93.70340 L2.10916 93.36610 L2.66247 93.04815 L3.22006 92.75077 L3.78200 92.47560 L3.62915 91.50630 L3.56922 91.09523 L2.95050 91.00204 L2.32925 90.88638 L1.70588 90.74980 L1.08074 90.59349 L0.45414 90.41834 L0.31753 89.22687 L0.88822 88.91443 L1.46175 88.62068 L2.03803 88.34655 L2.61698 88.09327 L3.19855 87.86247 L3.13250 87.04011 L3.10352 86.62570 L2.49352 86.48645 L1.88267 86.32459 L1.27128 86.14172 L0.65960 85.93903 L0.04787 85.71745 L0.00086 84.51910 L0.59334 84.25027 L1.18727 84.00029 L1.78246 83.77009 L2.37875 83.56087 L2.97597 83.37426 L2.97239 82.34114 L2.97597 81.92574 L2.37875 81.73913 L1.78246 81.52991 L1.18727 81.29971 L0.59334 81.04973 L0.00086 80.78090 L0.04787 79.58255 L0.65960 79.36097 L1.27128 79.15828 L1.88267 78.97541 L2.49352 78.81355 L3.10352 78.67430 L3.16388 77.85150 L3.19855 77.43753 L2.61698 77.20673 L2.03803 76.95345 L1.46175 76.67932 L0.88822 76.38557 L0.31753 76.07313 L0.45414 74.88166 L1.08074 74.70651 L1.70588 74.55020 L2.32925 74.41362 L2.95050 74.29796 L3.56922 74.20477 L3.71535 73.23444 L3.78200 72.82440 L3.22006 72.54923 L2.66247 72.25185 L2.10916 71.93390 L1.56011 71.59660 L1.01534 71.24089 L1.24386 70.06358 L1.88214 69.93750 L2.51752 69.83009 L3.14960 69.74223 L3.77794 69.67505 L4.40202 69.63008 L4.61407 68.71086 L4.71203 68.30715 L4.17290 67.98961 L3.63982 67.65026 L3.11258 67.29073 L2.59107 66.91223 L2.07525 66.51570 L2.39356 65.35944 L3.03965 65.28279 L3.68140 65.22452 L4.31836 65.18549 L4.95001 65.16680 L5.57570 65.16992 L5.83601 64.33742 L5.96423 63.94228 L5.45067 63.58486 L4.94480 63.20615 L4.44627 62.80775 L3.95490 62.39087 L3.47056 61.95645 L3.87546 60.82759 L4.52549 60.80004 L5.16981 60.79051 L5.80790 60.79979 L6.43915 60.82894 L7.06281 60.87940 L7.43214 59.95423 L7.59069 59.57026 L7.10647 59.17399 L6.63156 58.75711 L6.16551 58.32117 L5.70802 57.86736 L5.25892 57.39661 L5.75033 56.30263 L6.40054 56.32570 L7.04364 56.36627 L7.67908 56.42512 L8.30616 56.50324 L8.92401 56.60203 L9.34212 55.75219 L9.52973 55.38155 L9.07742 54.94922 L8.63598 54.49704 L8.20484 54.02655 L7.78361 53.53890 L7.37204 53.03500 L7.94614 51.98206 L8.59264 52.05506 L9.23073 52.14498 L9.85976 52.25252 L10.47897 52.37865 L11.08739 52.52466 L11.52024 51.79164 L11.73524 51.43618 L11.31677 50.97101 L10.91064 50.48687 L10.51616 49.98524 L10.13286 49.46725 L9.76041 48.93379 L10.41218 47.92707 L11.05136 48.04856 L11.68085 48.18628 L12.30000 48.34090 L12.90795 48.51330 L13.50365 48.70472 L14.07236 47.89097 L14.31432 47.55329 L13.93325 47.05702 L13.56595 46.54280 L13.21162 46.01204 L12.86971 45.46585 L12.53982 44.90507 L13.26781 43.95202 L13.89562 44.12279 L14.51252 44.30898 L15.11778 44.51122 L15.71051 44.73032 L16.28954 44.96744 L16.83900 44.29716 L17.10578 43.97872 L16.76331 43.45508 L16.43592 42.91457 L16.12272 42.35855 L15.82307 41.78808 L15.53650 41.20397 L16.33444 40.30867 L16.94754 40.52639 L17.54861 40.75867 L18.13686 41.00608 L18.71133 41.26935 L19.27078 41.54954 L19.87505 40.91680 L20.16518 40.61948 L19.86333 40.07141 L19.57780 39.50766 L19.30760 38.92953 L19.05200 38.33801 L18.81047 37.73388 L19.67391 36.90156 L20.26877 37.16507 L20.85052 37.44220 L21.41835 37.73343 L21.97124 38.03944 L22.50788 38.36119 L23.24711 37.69745 L23.55945 37.42356 L23.30110 36.85370 L23.06023 36.26947 L22.83575 35.67210 L22.62687 35.06251 L22.43301 34.44144 L23.35848 33.67871 L23.93108 33.98764 L24.48954 34.30912 L25.03304 34.64358 L25.56049 34.99162 L26.07051 35.35408 L26.73669 34.84220 L27.06873 34.59255 L26.85392 34.00488 L26.65762 33.40422 L26.47866 32.79167 L26.31617 32.16810 L26.16952 31.53423 L27.14969 30.84318 L27.69745 31.19426 L28.23019 31.55679 L28.74701 31.93114 L29.24682 32.31782 L29.72817 32.71758 L30.53965 32.18722 L30.88999 31.96399 L30.72123 31.36148 L30.57194 30.74744 L30.44086 30.12289 L30.32704 29.48863 L30.22982 28.84532 L31.26046 28.23209 L31.77945 28.62445 L32.28258 29.02707 L32.76893 29.44024 L33.23736 29.86439 L33.68637 30.30015 L34.51341 29.84647 L34.87987 29.65081 L34.75792 29.03712 L34.65626 28.41342 L34.57355 27.78064 L34.50882 27.13951 L34.46132 26.49063 L35.53604 25.95842 L36.02334 26.38950 L36.49404 26.82959 L36.94720 27.27892 L37.38165 27.73781 L37.79585 28.20679 L38.68363 27.80547 L39.06412 27.63875 L38.99001 27.01746 L38.93691 26.38777 L38.90340 25.75049 L38.88846 25.10628 L38.89130 24.45567 L40.00398 24.00819 L40.45647 24.47568 L40.89171 24.95087 L41.30875 25.43390 L41.70640 25.92503 L42.08308 26.42465 L42.85870 26.14297 L43.25061 26.00521 L43.22323 25.38011 L43.21743 24.74821 L43.23174 24.11021 L43.26508 23.46669 L43.31664 22.81812 L44.45969 22.45522 L44.87591 22.95528 L45.27435 23.46173 L45.65404 23.97463 L46.01380 24.49416 L46.35200 25.02058 L47.30326 24.75521 L47.70468 24.64828 L47.72588 24.02294 L47.76912 23.39249 L47.83289 22.75753 L47.91606 22.11853 L48.01777 21.47591 L49.18554 21.20279 L49.56171 21.73364 L49.91965 22.26947 L50.25841 22.81029 L50.57677 23.35616 L50.87312 23.90723 L51.75651 23.73265 L52.16490 23.65659 L52.23365 23.03468 L52.32477 22.40935 L52.43669 21.78109 L52.56827 21.15028 L52.71862 20.51727 L53.90379 20.33385 L54.23845 20.89180 L54.55456 21.45332 L54.85116 22.01837 L55.12704 22.58689 L55.38056 23.15893 L56.30146 23.04912 L56.71448 23.00456 L56.83065 22.38974 L56.96939 21.77323 L57.12910 21.15538 L57.30860 20.53650 L57.50698 19.91686 L58.70272 19.82475 L58.99367 20.40669 L59.26584 20.99077 L59.51830 21.57687 L59.74983 22.16485 L59.95881 22.75462 L60.89898 22.71520 L61.31421 22.70249 L61.47726 22.09842 L61.66294 21.49438 L61.86964 20.89062 L62.09615 20.28736 L62.34154 19.68479 L63.54082 19.68479 L63.78621 20.28736 L64.01271 20.89062 L64.21941 21.49438 L64.40509 22.09842 L64.56815 22.70249 L65.50857 22.73540 L65.92355 22.75462 L66.13252 22.16485 L66.36405 21.57687 L66.61651 20.99077 L66.88868 20.40669 L67.17963 19.82475 L68.37537 19.91686 L68.57375 20.53650 L68.75325 21.15538 L68.91296 21.77323 L69.05170 22.38974 L69.16788 23.00456 L70.08951 23.10798 L70.50179 23.15893 L70.75532 22.58689 L71.03120 22.01837 L71.32780 21.45332 L71.64390 20.89180 L71.97856 20.33385 L73.16373 20.51727 L73.31408 21.15028 L73.44566 21.78109 L73.55758 22.40935 L73.64870 23.03468 L73.71745 23.65659 L74.60203 23.82505 L75.00924 23.90723 L75.30558 23.35616 L75.62394 22.81029 L75.96271 22.26947 L76.32065 21.73364 L76.69681 21.20279 L77.86458 21.47591 L77.96630 22.11853 L78.04946 22.75753 L78.11323 23.39249 L78.15647 24.02294 L78.17767 24.64828 L79.13075 24.90705 L79.53035 25.02058 L79.86855 24.49416 L80.22831 23.97463 L80.60801 23.46173 L81.00644 22.95528 L81.42266 22.45522 L82.56572 22.81812 L82.61727 23.46669 L82.65061 24.11021 L82.66492 24.74821 L82.65912 25.38011 L82.63174 26.00521 L83.40930 26.28151 L83.79928 26.42465 L84.17595 25.92503 L84.57360 25.43390 L84.99064 24.95087 L85.42588 24.47568 L85.87838 24.00819 L86.99105 24.45567 L86.99389 25.10628 L86.97895 25.75049 L86.94544 26.38777 L86.89234 27.01746 L86.81823 27.63875 L87.70876 28.03391 L88.08650 28.20679 L88.50070 27.73781 L88.93515 27.27892 L89.38831 26.82959 L89.85901 26.38950 L90.34632 25.95842 L91.42104 26.49063 L91.37353 27.13951 L91.30880 27.78064 L91.22609 28.41342 L91.12443 29.03712 L91.00248 29.65081 L91.83265 30.09875 L92.19598 30.30015 L92.64499 29.86439 L93.11342 29.44024 L93.59977 29.02707 L94.10290 28.62445 L94.62189 28.23209 L95.65254 28.84532 L95.55531 29.48863 L95.44150 30.12289 L95.31041 30.74744 L95.16112 31.36148 L94.99237 31.96399 L95.80750 32.48870 L96.15418 32.71758 L96.63553 32.31782 L97.13534 31.93114 L97.65217 31.55679 L98.18490 31.19426 L98.73267 30.84318 L99.71283 31.53423 L99.56618 32.16810 L99.40369 32.79167 L99.22473 33.40422 L99.02843 34.00488 L98.81362 34.59255 L99.48334 35.09980 L99.81185 35.35408 L100.32187 34.99162 L100.84932 34.64358 L101.39281 34.30912 L101.95128 33.98764 L102.52387 33.67871 L103.44935 34.44144 L103.25549 35.06251 L103.04661 35.67210 L102.82213 36.26947 L102.58126 36.85370 L102.32290 37.42356 L103.06671 38.08216 L103.37448 38.36119 L103.91111 38.03944 L104.46400 37.73343 L105.03183 37.44220 L105.61359 37.16507 L106.20845 36.90156 L107.07188 37.73388 L106.83036 38.33801 L106.57476 38.92953 L106.30455 39.50766 L106.01902 40.07141 L105.71718 40.61948 L106.32581 41.24802 L106.61157 41.54954 L107.17102 41.26935 L107.74550 41.00608 L108.33375 40.75867 L108.93481 40.52639 L109.54792 40.30867 L110.34585 41.20397 L110.05929 41.78808 L109.75963 42.35855 L109.44643 42.91457 L109.11904 43.45508 L108.77657 43.97872 L109.33066 44.64518 L109.59281 44.96744 L110.17184 44.73032 L110.76457 44.51122 L111.36983 44.30898 L111.98673 44.12279 L112.61454 43.95202 L113.34253 44.90507 L113.01264 45.46585 L112.67073 46.01204 L112.31641 46.54280 L111.94911 47.05702 L111.56804 47.55329 L112.14237 48.36308 L112.37870 48.70472 L112.97440 48.51330 L113.58235 48.34090 L114.20150 48.18628 L114.83100 48.04856 L115.47017 47.92707 L116.12194 48.93379 L115.74949 49.46725 L115.36619 49.98524 L114.97171 50.48687 L114.56558 50.97101 L114.14712 51.43618 L114.58503 52.16619 L114.79496 52.52466 L115.40338 52.37865 L116.02259 52.25252 L116.65163 52.14498 L117.28971 52.05506 L117.93622 51.98206 L118.51031 53.03500 L118.09874 53.53890 L117.67751 54.02655 L117.24637 54.49704 L116.80493 54.94922 L116.35262 55.38155 L116.77661 56.22847 L116.95834 56.60203 L117.57619 56.50324 L118.20327 56.42512 L118.83871 56.36627 L119.48182 56.32570 L120.13202 56.30263 L120.62344 57.39661 L120.17433 57.86736 L119.71685 58.32117 L119.25080 58.75711 L118.77588 59.17399 L118.29166 59.57026 L118.66739 60.49285 L118.81954 60.87940 L119.44320 60.82894 L120.07446 60.79979 L120.71255 60.79051 L121.35686 60.80004 L122.00690 60.82759 L122.41179 61.95645 L121.92745 62.39087 L121.43608 62.80775 L120.93755 63.20615 L120.43168 63.58486 L119.91812 63.94228 L120.18419 64.77297 L120.30665 65.16992 L120.93234 65.16680 L121.56399 65.18549 L122.20096 65.22452 L122.84270 65.28279 L123.48879 65.35944 L123.80710 66.51570 L123.29128 66.91223 L122.76978 67.29073 L122.24254 67.65026 L121.70945 67.98961 L121.17032 68.30715 L121.38874 69.22489 L121.48033 69.63008 L122.10441 69.67505 L122.73276 69.74223 L123.36484 69.83009 L124.00021 69.93750 L124.63849 70.06358 L124.86701 71.24089 L124.32224 71.59660 L123.77319 71.93390 L123.21988 72.25185 L122.66229 72.54923 L122.10036 72.82440 L122.25321 73.79370 L122.31313 74.20477 L122.93185 74.29796 L123.55310 74.41362 L124.17647 74.55020 L124.80162 74.70651 L125.42821 74.88166 L125.56483 76.07313 L124.99414 76.38557 L124.42060 76.67932 L123.84432 76.95345 L123.26537 77.20673 L122.68380 77.43753 L122.74985 78.25989 L122.77883 78.67430 L123.38883 78.81355 L123.99968 78.97541 L124.61108 79.15828 L125.22276 79.36097 L125.83448 79.58255 L125.88149 80.78090 L125.28901 81.04973 L124.69509 81.29971 L124.09989 81.52991 L123.50361 81.73913 L122.90639 81.92574 L122.90996 82.95886 L122.90639 83.37426 L123.50361 83.56087 L124.09989 83.77009 L124.69509 84.00029 L125.28901 84.25027 L125.88149 84.51910 L125.83448 85.71745 L125.22276 85.93903 L124.61108 86.14172 L123.99968 86.32459 L123.38883 86.48645 L122.77883 86.62570 L122.71847 87.44850 z"/>
<path stroke="#000000" d="M 0.00000 19.68571 L 126.00000 19.68571 L 126.00000 145.68571 L 0.00000 145.68571 z"/>
<path stroke="#000000" d="M 3.37500 163.04923 L 4.50000 163.61173 L 6.18750 165.29923 L 6.18750 153.48673"/>
<path stroke="#000000" d="M 13.50000 162.48673 L 13.50000 163.04923 L 14.06250 164.17423 L 14.62500 164.73673 L 15.75000 165.29923 L 18.00000 165.29923 L 19.12500 164.73673 L 19.68750 164.17423 L 20.25000 163.04923 L 20.25000 161.92423 L 19.68750 160.79923 L 18.56250 159.11173 L 12.93750 153.48673 L 20.81250 153.48673"/>
<path stroke="#000000" d="M 30.93750 165.29923 L 25.31250 165.29923 L 24.75000 160.23673 L 25.31250 160.79923 L 27.00000 161.36173 L 28.68750 161.36173 L 30.37500 160.79923 L 31.50000 159.67423 L 32.06250 157.98673 L 32.06250 156.86173 L 31.50000 155.17423 L 30.37500 154.04923 L 28.68750 153.48673 L 27.00000 153.48673 L 25.31250 154.04923 L 24.75000 154.61173 L 24.18750 155.73673"/>
<path stroke="#000000" d="M 36.56250 154.61173 L 36.00000 154.04923 L 36.56250 153.48673 L 37.12500 154.04923 z"/>
<path stroke="#000000" d="M 43.87500 165.29923 L 42.18750 164.73673 L 41.62500 163.61173 L 41.62500 162.48673 L 42.18750 161.36173 L 43.31250 160.79923 L 45.56250 160.23673 L 47.25000 159.67423 L 48.37500 158.54923 L 48.93750 157.42423 L 48.93750 155.73673 L 48.37500 154.61173 L 47.81250 154.04923 L 46.12500 153.48673 L 43.87500 153.48673 L 42.18750 154.04923 L 41.62500 154.61173 L 41.06250 155.73673 L 41.06250 157.42423 L 41.62500 158.54923 L 42.75000 159.67423 L 44.43750 160.23673 L 46.68750 160.79923 L 47.81250 161.36173 L 48.37500 162.48673 L 48.37500 163.61173 L 47.81250 164.73673 L 46.12500 165.29923 z"/>
<path stroke="#000000" d="M 55.12500 165.29923 L 53.43750 164.73673 L 52.87500 163.61173 L 52.87500 162.48673 L 53.43750 161.36173 L 54.56250 160.79923 L 56.81250 160.23673 L 58.50000 159.67423 L 59.62500 158.54923 L 60.18750 157.42423 L 60.18750 155.73673 L 59.62500 154.61173 L 59.06250 154.04923 L 57.37500 153.48673 L 55.12500 153.48673 L 53.43750 154.04923 L 52.87500 154.61173 L 52.31250 155.73673 L 52.31250 157.42423 L 52.87500 158.54923 L 54.00000 159.67423 L 55.68750 160.23673 L 57.93750 160.79923 L 59.06250 161.36173 L 59.62500 162.48673 L 59.62500 163.61173 L 59.06250 164.73673 L 57.37500 165.29923 z"/>
<path stroke="#000000" d=""/>
<path stroke="#000000" d="M 72.56250 161.36173 L 78.75000 153.48673 M 78.75000 161.36173 L 72.56250 153.48673"/>
<path stroke="#000000" d=""/>
<path stroke="#000000" d="M 92.81250 163.04923 L 93.93750 163.61173 L 95.62500 165.29923 L 95.62500 153.48673"/>
<path stroke="#000000" d="M 102.93750 162.48673 L 102.93750 163.04923 L 103.50000 164.17423 L 104.06250 164.73673 L 105.18750 165.29923 L 107.43750 165.29923 L 108.56250 164.73673 L 109.12500 164.17423 L 109.68750 163.04923 L 109.68750 161.92423 L 109.12500 160.79923 L 108.00000 159.11173 L 102.37500 153.48673 L 110.25000 153.48673"/>
<path stroke="#000000" d="M 120.37500 165.29923 L 114.75000 165.29923 L 114.18750 160.23673 L 114.75000 160.79923 L 116.43750 161.36173 L 118.12500 161.36173 L 119.81250 160.79923 L 120.93750 159.67423 L 121.50000 157.98673 L 121.50000 156.86173 L 120.93750 155.17423 L 119.81250 154.04923 L 118.12500 153.48673 L 116.43750 153.48673 L 114.75000 154.04923 L 114.18750 154.61173 L 113.62500 155.73673"/>
<path stroke="#000000" d="M 126.00000 154.61173 L 125.43750 154.04923 L 126.00000 153.48673 L 126.56250 154.04923 z"/>
<path stroke="#000000" d="M 137.81250 161.36173 L 137.25000 159.67423 L 136.12500 158.54923 L 134.43750 157.98673 L 133.87500 157.98673 L 132.18750 158.54923 L 131.06250 159.67423 L 130.50000 161.36173 L 130.50000 161.92423 L 131.06250 163.61173 L 132.18750 164.73673 L 133.87500 165.29923 L 134.43750 165.29923 L 136.12500 164.73673 L 137.25000 163.61173 L 137.81250 161.36173 L 137.81250 158.54923 L 137.25000 155.73673 L 136.12500 154.04923 L 134.43750 153.48673 L 133.31250 153.48673 L 131.62500 154.04923 L 131.06250 155.17423"/>
<path stroke="#000000" d="M 142.87500 165.29923 L 149.06250 165.29923 L 145.68750 160.79923 L 147.37500 160.79923 L 148.50000 160.23673 L 149.06250 159.67423 L 149.62500 157.98673 L 149.62500 156.86173 L 149.06250 155.17423 L 147.93750 154.04923 L 146.25000 153.48673 L 144.56250 153.48673 L 142.87500 154.04923 L 142.31250 154.61173 L 141.75000 155.73673"/>
</svg>