<?xml version="1.0" encoding="UTF-8"?>
<!-- Generated by jsxcad -->
<!DOCTYPE svg PUBLIC "-//W3C//DTD SVG 1.1 Tiny//EN" "http://www.w3.org/Graphics/SVG/1.1/DTD/svg11-tiny.dtd">
<svg viewBox="-250 -250 500 500" width="500" height="500" xmlns="http://www.w3.org/2000/svg"><path d="M-33.7392732930812,-48.87851361833437L-12.570957374343191,-59.19714295344764L-19.932973903488186,-73.9678128782292z" style="fill:rgb(162,50,222)"/><path d="M-53.399988311799525,-36.10473194270522L-33.7392732930812,-48.87851361833437L-41.38076992237589,-63.501954375271644z" style="fill:rgb(183,62,221)"/><path d="M-22.431082826270003,-78.97985741633494L-91.71262022059693,-61.185713489109034L-94.44034222275731,-58.928650274629824zM-19.932973903488186,-73.9678128782292L-59.19586841061646,-64.60176574982155L-63.29984577614166,-61.95363975462331zM-41.38076992237589,-63.501954375271644L-63.29984577614166,-61.95363975462331L-69.6481392967044,-57.85735249640662zM-43.97368537326074,-68.46398893862184L-94.44034222275731,-58.928650274629824L-102.54802773602822,-52.21988506328086zM-41.38076992237589,-63.501954375271644L-69.6481392967044,-57.85735249640662L-73.50346816785652,-54.63910434840136z" style="fill:rgb(83,212,212)"/><path d="M-12.570957374343191,-59.19714295344764L9.500939822186197,-66.76054244359875L2.407233892297132,-81.69136947170746z" style="fill:rgb(139,40,220)"/><path d="M-64.0168887847058,-55.51443403539921L-102.54802773602822,-52.21988506328086L-103.72021665888813,-51.24997732451205z" style="fill:rgb(83,212,212)"/><path d="M-33.7392732930812,-48.87851361833437L-19.932973903488186,-73.9678128782292L-41.38076992237589,-63.501954375271644z" style="fill:rgb(162,50,222)"/><path d="M-70.9733609878929,-21.224548702048597L-53.399988311799525,-36.10473194270522L-61.32697061737218,-50.59675333647534z" style="fill:rgb(203,77,216)"/><path d="M-41.38076992237589,-63.501954375271644L-19.932973903488186,-73.9678128782292L-63.29984577614166,-61.95363975462331zM-61.32697061737218,-50.59675333647534L-73.50346816785652,-54.63910434840136L-86.66436798419157,-43.653072179034126zM96.06729570547431,-113.54473595670005L-28.320330227122973,-99.74331585196504L-55.51016523118144,-86.4528624156007z" style="fill:rgb(83,212,212)"/><path d="M-53.399988311799525,-36.10473194270522L-41.38076992237589,-63.501954375271644L-61.32697061737218,-50.59675333647534z" style="fill:rgb(183,62,221)"/><path d="M-12.570957374343191,-59.19714295344764L2.407233892297132,-81.69136947170746L-19.932973903488186,-73.9678128782292z" style="fill:rgb(139,40,220)"/><path d="M-64.0168887847058,-55.51443403539921L-103.72021665888813,-51.24997732451205L-112.10408342136718,-42.267915617311715zM-19.932973903488186,-73.9678128782292L2.407233892297132,-81.69136947170746L-59.19586841061646,-64.60176574982155zM-61.32697061737218,-50.59675333647534L-41.38076992237589,-63.501954375271644L-73.50346816785652,-54.63910434840136zM96.06729570547431,-113.54473595670005L-55.51016523118144,-86.4528624156007L-80.8705225982201,-70.15706949557696zM65.94372092378268,-99.31732922120828L-22.8609980771961,-84.24424900652525L-47.0888392900726,-72.41392462718764zM-43.97368537326074,-68.46398893862184L-22.431082826270003,-78.97985741633494L-94.44034222275731,-58.928650274629824zM65.94372092378268,-99.31732922120828L-47.0888392900726,-72.41392462718764L-59.19586841061646,-64.60176574982155zM96.06729570547431,-113.54473595670005L-3.234491565240442e-14,-109.6779533927698L-28.320330227122973,-99.74331585196504zM-22.431082826270003,-78.97985741633494L-2.4607917439570672e-14,-86.75811359915282L-91.71262022059693,-61.185713489109034z" style="fill:rgb(83,212,212)"/><path d="M9.500939822186197,-66.76054244359875L31.8459981917147,-71.31712968802756L25.00450220118192,-86.417097003837z" style="fill:rgb(115,34,214)"/><path d="M65.94372092378268,-99.31732922120828L2.378808385482383,-93.02061808015303L-22.8609980771961,-84.24424900652525zM-64.0168887847058,-55.51443403539921L-43.97368537326074,-68.46398893862184L-102.54802773602822,-52.21988506328086zM96.06729570547431,-113.54473595670005L-80.8705225982201,-70.15706949557696L-91.71262022059693,-61.185713489109034zM-79.1860635415997,-35.60293417719921L-86.66436798419157,-43.653072179034126L-89.90381673826941,-40.948927537372896z" style="fill:rgb(83,212,212)"/><path d="M-43.97368537326074,-68.46398893862184L-41.38076992237589,-63.501954375271644L-19.932973903488186,-73.9678128782292z" style="fill:rgb(162,50,222)"/><path d="M-70.9733609878929,-21.224548702048597L-61.32697061737218,-50.59675333647534L-79.1860635415997,-35.60293417719921z" style="fill:rgb(203,77,216)"/><path d="M9.500939822186197,-66.76054244359875L25.00450220118192,-86.417097003837L2.407233892297132,-81.69136947170746z" style="fill:rgb(115,34,214)"/><path d="M-79.1860635415997,-35.60293417719921L-61.32697061737218,-50.59675333647534L-86.66436798419157,-43.653072179034126z" style="fill:rgb(83,212,212)"/><path d="M-85.90445785497562,-4.63880365529687L-70.9733609878929,-21.224548702048597L-79.1860635415997,-35.60293417719921z" style="fill:rgb(220,94,208)"/><path d="M-79.1860635415997,-35.60293417719921L-89.90381673826941,-40.948927537372896L-100.03510681235443,-29.94235543899617z" style="fill:rgb(83,212,212)"/><path d="M-64.0168887847058,-55.51443403539921L-61.32697061737218,-50.59675333647534L-41.38076992237589,-63.501954375271644z" style="fill:rgb(183,62,221)"/><path d="M-43.97368537326074,-68.46398893862184L-19.932973903488186,-73.9678128782292L-22.431082826270003,-78.97985741633494z" style="fill:rgb(162,50,222)"/><path d="M-22.431082826270003,-78.97985741633494L-19.932973903488186,-73.9678128782292L2.407233892297132,-81.69136947170746z" style="fill:rgb(139,40,220)"/><path d="M-81.97323589291821,-40.482578704977165L-112.10408342136718,-42.267915617311715L-123.38789890475404,-30.178979171417964zM96.06729570547431,-113.54473595670005L28.722370924100385,-115.94509081684282L-3.234491565240442e-14,-109.6779533927698z" style="fill:rgb(83,212,212)"/><path d="M-64.0168887847058,-55.51443403539921L-41.38076992237589,-63.501954375271644L-43.97368537326074,-68.46398893862184z" style="fill:rgb(183,62,221)"/><path d="M65.94372092378268,-99.31732922120828L27.94597309256539,-98.45959833801979L2.378808385482383,-93.02061808015303zM-81.97323589291821,-40.482578704977165L-64.0168887847058,-55.51443403539921L-112.10408342136718,-42.267915617311715zM-81.97323589291821,-40.482578704977165L-123.38789890475404,-30.178979171417964L-124.24731749502207,-28.944935907034985z" style="fill:rgb(83,212,212)"/><path d="M-22.431082826270003,-78.97985741633494L2.407233892297132,-81.69136947170746L-2.4607917439570672e-14,-86.75811359915282z" style="fill:rgb(139,40,220)"/><path d="M-81.97323589291821,-40.482578704977165L-61.32697061737218,-50.59675333647534L-64.0168887847058,-55.51443403539921zM-81.97323589291821,-40.482578704977165L-79.1860635415997,-35.60293417719921L-61.32697061737218,-50.59675333647534z" style="fill:rgb(203,77,216)"/><path d="M-2.4607917439570672e-14,-86.75811359915282L2.407233892297132,-81.69136947170746L25.00450220118192,-86.417097003837z" style="fill:rgb(115,34,214)"/><path d="M31.8459981917147,-71.31712968802756L53.80507704551268,-72.66750558891775L47.194600991121085,-87.94044385948399z" style="fill:rgb(92,32,204)"/><path d="M-94.39636808462062,-18.922660075106165L-100.03510681235443,-29.94235543899617L-107.23883719672189,-22.116277623032673zM-94.39636808462062,-18.922660075106165L-79.1860635415997,-35.60293417719921L-100.03510681235443,-29.94235543899617z" style="fill:rgb(83,212,212)"/><path d="M-85.90445785497562,-4.63880365529687L-79.1860635415997,-35.60293417719921L-94.39636808462062,-18.922660075106165z" style="fill:rgb(220,94,208)"/><path d="M31.8459981917147,-71.31712968802756L47.194600991121085,-87.94044385948399L25.00450220118192,-86.417097003837z" style="fill:rgb(92,32,204)"/><path d="M-22.431082826270003,-78.97985741633494L-54.58247351504257,-88.76590678943936L-43.97368537326074,-68.46398893862184z" style="fill:rgb(162,50,222)"/><path d="M65.94372092378268,-99.31732922120828L53.120594735218255,-100.32508222511069L27.94597309256539,-98.45959833801979zM96.06729570547431,-113.54473595670005L57.07611603419259,-118.27353376916957L28.722370924100385,-115.94509081684282z" style="fill:rgb(83,212,212)"/><path d="M-2.4607917439570672e-14,-86.75811359915282L25.00450220118192,-86.417097003837L22.682556987563263,-91.54189424001798z" style="fill:rgb(115,34,214)"/><path d="M-43.97368537326074,-68.46398893862184L-75.02325662818322,-75.63614645133691L-64.0168887847058,-55.51443403539921z" style="fill:rgb(183,62,221)"/><path d="M-2.6755615159549448e-14,-86.75811359915282L-32.65211476090303,-99.48666945979842L-22.431082826270003,-78.97985741633494z" style="fill:rgb(139,40,220)"/><path d="M-97.27877786609018,-23.77101941398545L-124.24731749502207,-28.944935907034985L-134.9220210095329,-13.616717854602015zM-97.27877786609018,-23.77101941398545L-81.97323589291821,-40.482578704977165L-124.24731749502207,-28.944935907034985z" style="fill:rgb(83,212,212)"/><path d="M-97.66768512437301,13.19462094938741L-85.90445785497562,-4.63880365529687L-94.39636808462062,-18.922660075106165z" style="fill:rgb(233,112,197)"/><path d="M-94.39636808462062,-18.922660075106165L-107.23883719672189,-22.116277623032673L-112.77883385414106,-13.990141831381836zM70.3264459573922,-98.9728953448541L2.407233892297132,-81.69136947170746L25.00450220118192,-86.417097003837zM-54.58247351504257,-88.76590678943936L-35.62593234968419,-110.17652787397576L-53.86678246370631,-101.25322909943259zM-54.58247351504257,-88.76590678943936L-32.239973342937034,-111.37210898343896L-35.62593234968419,-110.17652787397576zM-75.02325662818322,-75.63614645133691L-53.86678246370631,-101.25322909943259L-60.531826574478764,-97.99273634673344z" style="fill:rgb(83,212,212)"/><path d="M-97.27877786609018,-23.77101941398545L-79.1860635415997,-35.60293417719921L-81.97323589291821,-40.482578704977165z" style="fill:rgb(220,94,208)"/><path d="M-75.02325662818322,-75.63614645133691L-60.531826574478764,-97.99273634673344L-73.95408820073705,-89.3953641900226zM70.3264459573922,-98.9728953448541L65.94372092378268,-99.31732922120828L2.407233892297132,-81.69136947170746zM-32.65211476090303,-99.48666945979842L-9.725276350232074,-119.32196189928838L-32.239973342937034,-111.37210898343896z" style="fill:rgb(83,212,212)"/><path d="M-97.27877786609018,-23.77101941398545L-94.39636808462062,-18.922660075106165L-79.1860635415997,-35.60293417719921z" style="fill:rgb(220,94,208)"/><path d="M22.682556987563263,-91.54189424001798L25.00450220118192,-86.417097003837L47.194600991121085,-87.94044385948399z" style="fill:rgb(92,32,204)"/><path d="M-22.431082826270003,-78.97985741633494L-32.65211476090303,-99.48666945979842L-54.58247351504257,-88.76590678943936z" style="fill:rgb(162,50,222)"/><path d="M-64.0168887847058,-55.51443403539921L-93.37911486297669,-60.45143168043616L-81.97323589291821,-40.482578704977165z" style="fill:rgb(203,77,216)"/><path d="M22.682556987563263,-91.54189424001798L-9.850101604068424,-107.49060021661562L-2.6755615159549448e-14,-86.75811359915282z" style="fill:rgb(115,34,214)"/><path d="M-43.97368537326074,-68.46398893862184L-54.58247351504257,-88.76590678943936L-75.02325662818322,-75.63614645133691z" style="fill:rgb(183,62,221)"/><path d="M-93.37911486297669,-60.45143168043616L-73.95408820073705,-89.3953641900226L-83.77591318973488,-83.10415254567317zM-54.58247351504257,-88.76590678943936L-32.65211476090303,-99.48666945979842L-32.239973342937034,-111.37210898343896zM-75.02325662818322,-75.63614645133691L-54.58247351504257,-88.76590678943936L-53.86678246370631,-101.25322909943259zM-93.37911486297669,-60.45143168043616L-83.77591318973488,-83.10415254567317L-91.85467675528498,-76.46104481081765z" style="fill:rgb(83,212,212)"/><path d="M-2.6755615159549448e-14,-86.75811359915282L-9.850101604068424,-107.49060021661562L-32.65211476090303,-99.48666945979842z" style="fill:rgb(139,40,220)"/><path d="M99.06443429869547,-112.8106770971286L-2.4607917439570672e-14,-86.75811359915282L22.682556987563263,-91.54189424001798zM-106.42434374745649,-1.0147239882792627L-94.39636808462062,-18.922660075106165L-112.77883385414106,-13.990141831381836zM96.06729570547431,-113.54473595670005L84.23755417069692,-116.44212134597728L57.07611603419259,-118.27353376916957zM-9.850101604068424,-107.49060021661562L13.011647231871246,-124.36851226270556L-9.725276350232074,-119.32196189928838zM81.30708500515387,-97.3522861173248L25.00450220118192,-86.417097003837L47.194600991121085,-87.94044385948399z" style="fill:rgb(83,212,212)"/><path d="M-97.66768512437301,13.19462094938741L-94.39636808462062,-18.922660075106165L-106.42434374745649,-1.0147239882792627z" style="fill:rgb(233,112,197)"/><path d="M53.80507704551268,-72.66750558891775L74.6899620451307,-70.67306543213599L68.28373490047186,-86.11640743180097z" style="fill:rgb(71,33,192)"/><path d="M-64.0168887847058,-55.51443403539921L-75.02325662818322,-75.63614645133691L-93.37911486297669,-60.45143168043616z" style="fill:rgb(203,77,216)"/><path d="M-109.39725314635083,-5.838838661609409L-134.9220210095329,-13.616717854602015L-139.2106963726496,-7.458425298777721zM-106.42434374745649,-1.0147239882792627L-112.77883385414106,-13.990141831381836L-121.0559432984016,-1.8491688948743763z" style="fill:rgb(83,212,212)"/><path d="M22.682556987563263,-91.54189424001798L47.194600991121085,-87.94044385948399L44.95065268662906,-93.12489670666122z" style="fill:rgb(92,32,204)"/><path d="M81.30708500515387,-97.3522861173248L70.3264459573922,-98.9728953448541L25.00450220118192,-86.417097003837zM-32.65211476090303,-99.48666945979842L-9.850101604068424,-107.49060021661562L-9.725276350232074,-119.32196189928838z" style="fill:rgb(83,212,212)"/><path d="M53.80507704551268,-72.66750558891775L68.28373490047186,-86.11640743180097L47.194600991121085,-87.94044385948399z" style="fill:rgb(71,33,192)"/><path d="M-93.37911486297669,-60.45143168043616L-75.02325662818322,-75.63614645133691L-73.95408820073705,-89.3953641900226zM-109.39725314635083,-5.838838661609409L-97.27877786609018,-23.77101941398545L-134.9220210095329,-13.616717854602015z" style="fill:rgb(83,212,212)"/><path d="M-109.39725314635083,-5.838838661609409L-94.39636808462062,-18.922660075106165L-97.27877786609018,-23.77101941398545z" style="fill:rgb(233,112,197)"/><path d="M-109.07686407664171,-43.61604520696821L-91.85467675528498,-76.46104481081765L-104.71124555688381,-65.88913984877104z" style="fill:rgb(83,212,212)"/><path d="M-105.77779171941721,31.75571071303378L-97.66768512437301,13.19462094938741L-106.42434374745649,-1.0147239882792627z" style="fill:rgb(242,130,183)"/><path d="M99.06443429869547,-112.8106770971286L96.06729570547431,-113.54473595670005L-2.4607917439570672e-14,-86.75811359915282zM-106.42434374745649,-1.0147239882792627L-121.0559432984016,-1.8491688948743763L-123.52278640252993,3.5095503018801453z" style="fill:rgb(83,212,212)"/><path d="M-81.97323589291821,-40.482578704977165L-109.07686407664171,-43.61604520696821L-97.27877786609018,-23.77101941398545z" style="fill:rgb(220,94,208)"/><path d="M-109.39725314635083,-5.838838661609409L-139.2106963726496,-7.458425298777721L-144.42364778487985,3.479111904069453z" style="fill:rgb(83,212,212)"/><path d="M44.95065268662906,-93.12489670666122L13.17988161280813,-112.51538937936768L22.682556987563263,-91.54189424001798z" style="fill:rgb(92,32,204)"/><path d="M22.682556987563263,-91.54189424001798L13.17988161280813,-112.51538937936768L-9.850101604068424,-107.49060021661562z" style="fill:rgb(115,34,214)"/><path d="M13.17988161280813,-112.51538937936768L16.475445009348384,-125.13730487612904L13.011647231871246,-124.36851226270556zM81.30708500515387,-97.3522861173248L77.14225216107418,-98.43725134044239L70.3264459573922,-98.9728953448541zM-109.07686407664171,-43.61604520696821L-104.71124555688381,-65.88913984877104L-106.89488712091212,-63.57007906122908z" style="fill:rgb(83,212,212)"/><path d="M-109.39725314635083,-5.838838661609409L-106.42434374745649,-1.0147239882792627L-94.39636808462062,-18.922660075106165z" style="fill:rgb(233,112,197)"/><path d="M44.95065268662906,-93.12489670666122L47.194600991121085,-87.94044385948399L68.28373490047186,-86.11640743180097z" style="fill:rgb(71,33,192)"/><path d="M-9.850101604068424,-107.49060021661562L13.17988161280813,-112.51538937936768L13.011647231871246,-124.36851226270556zM108.02316923170933,-110.61645484069406L22.682556987563263,-91.54189424001798L44.95065268662906,-93.12489670666122z" style="fill:rgb(83,212,212)"/><path d="M-81.97323589291821,-40.482578704977165L-93.37911486297669,-60.45143168043616L-109.07686407664171,-43.61604520696821z" style="fill:rgb(220,94,208)"/><path d="M-109.07686407664171,-43.61604520696821L-93.37911486297669,-60.45143168043616L-91.85467675528498,-76.46104481081765zM13.17988161280813,-112.51538937936768L35.285575956704655,-126.77079420093773L16.475445009348384,-125.13730487612904zM108.02316923170933,-110.61645484069406L99.06443429869547,-112.8106770971286L22.682556987563263,-91.54189424001798zM95.64968402153302,-93.61601759869686L81.30708500515387,-97.3522861173248L47.194600991121085,-87.94044385948399zM95.64968402153302,-93.61601759869686L47.194600991121085,-87.94044385948399L68.28373490047186,-86.11640743180097zM-114.77536834847731,17.60010437852306L-106.42434374745649,-1.0147239882792627L-123.52278640252993,3.5095503018801453z" style="fill:rgb(83,212,212)"/><path d="M44.95065268662906,-93.12489670666122L68.28373490047186,-86.11640743180097L66.1086096597013,-91.35993574311868z" style="fill:rgb(71,33,192)"/><path d="M-121.56921358540374,-25.59016458358795L-106.89488712091212,-63.57007906122908L-118.49775015582516,-51.24758310912411z" style="fill:rgb(83,212,212)"/><path d="M-105.77779171941721,31.75571071303378L-106.42434374745649,-1.0147239882792627L-114.77536834847731,17.60010437852306z" style="fill:rgb(242,130,183)"/><path d="M74.6899620451307,-70.67306543213599L87.5522915043195,-80.87291400692482L68.28373490047186,-86.11640743180097z" style="fill:rgb(51,38,177)"/><path d="M44.95065268662906,-93.12489670666122L35.76500164817447,-114.34755811207123L13.17988161280813,-112.51538937936768z" style="fill:rgb(92,32,204)"/><path d="M74.6899620451307,-70.67306543213599L93.7873670011926,-65.26929265924899L87.5522915043195,-80.87291400692482z" style="fill:rgb(51,38,177)"/><path d="M-114.77536834847731,17.60010437852306L-123.52278640252993,3.5095503018801453L-130.78751620394027,19.290746614677552zM-117.83087590492117,12.792958939491413L-109.39725314635083,-5.838838661609409L-144.42364778487985,3.479111904069453zM-117.83087590492117,12.792958939491413L-144.42364778487985,3.479111904069453L-150.5415841749684,16.31548518873375z" style="fill:rgb(83,212,212)"/><path d="M-97.27877786609018,-23.77101941398545L-121.56921358540374,-25.59016458358795L-109.39725314635083,-5.838838661609409z" style="fill:rgb(233,112,197)"/><path d="M66.1086096597013,-91.35993574311868L35.76500164817447,-114.34755811207123L44.95065268662906,-93.12489670666122z" style="fill:rgb(71,33,192)"/><path d="M13.17988161280813,-112.51538937936768L35.76500164817447,-114.34755811207123L35.285575956704655,-126.77079420093773zM35.76500164817447,-114.34755811207123L42.24544207497414,-127.37520319581547L35.285575956704655,-126.77079420093773z" style="fill:rgb(83,212,212)"/><path d="M-117.83087590492117,12.792958939491413L-106.42434374745649,-1.0147239882792627L-109.39725314635083,-5.838838661609409z" style="fill:rgb(242,130,183)"/><path d="M-121.56921358540374,-25.59016458358795L-109.07686407664171,-43.61604520696821L-106.89488712091212,-63.57007906122908z" style="fill:rgb(83,212,212)"/><path d="M-97.27877786609018,-23.77101941398545L-109.07686407664171,-43.61604520696821L-121.56921358540374,-25.59016458358795z" style="fill:rgb(233,112,197)"/><path d="M118.67990159097414,-105.84168596683064L44.95065268662906,-93.12489670666122L66.1086096597013,-91.35993574311868zM118.67990159097414,-105.84168596683064L108.02316923170933,-110.61645484069406L44.95065268662906,-93.12489670666122z" style="fill:rgb(83,212,212)"/><path d="M-109.80789315088752,50.4596192179247L-105.77779171941721,31.75571071303378L-114.77536834847731,17.60010437852306z" style="fill:rgb(246,149,167)"/><path d="M-114.77536834847731,17.60010437852306L-130.78751620394027,19.290746614677552L-131.42202105762425,21.935375616712967zM35.76500164817447,-114.34755811207123L56.36005118751014,-126.4940577021342L42.24544207497414,-127.37520319581547z" style="fill:rgb(83,212,212)"/><path d="M-117.83087590492117,12.792958939491413L-114.77536834847731,17.60010437852306L-106.42434374745649,-1.0147239882792627z" style="fill:rgb(242,130,183)"/><path d="M66.1086096597013,-91.35993574311868L68.28373490047186,-86.11640743180097L87.5522915043195,-80.87291400692482z" style="fill:rgb(51,38,177)"/><path d="M-117.83087590492117,12.792958939491413L-150.5415841749684,16.31548518873375L-151.93708644091532,21.72384268337387zM-130.34533886477664,-6.895630737233498L-118.49775015582516,-51.24758310912411L-122.70639227314604,-46.777906262460185zM-130.34533886477664,-6.895630737233498L-122.70639227314604,-46.777906262460185L-125.88870020238055,-42.2566900431038zM110.43622646138212,-87.08596874523174L95.64968402153302,-93.61601759869686L68.28373490047186,-86.11640743180097zM118.67990159097414,-105.84168596683064L109.3246628801066,-110.29772042495014L108.02316923170933,-110.61645484069406zM110.43622646138212,-87.08596874523174L68.28373490047186,-86.11640743180097L87.5522915043195,-80.87291400692482zM110.43622646138212,-87.08596874523174L99.21000852686483,-92.68851926290716L95.64968402153302,-93.61601759869686z" style="fill:rgb(83,212,212)"/><path d="M66.1086096597013,-91.35993574311868L57.201987286470185,-112.83093637812014L35.76500164817447,-114.34755811207123z" style="fill:rgb(71,33,192)"/><path d="M66.1086096597013,-91.35993574311868L87.5522915043195,-80.87291400692482L85.43468115307034,-86.1723510545406z" style="fill:rgb(51,38,177)"/><path d="M-119.01191478117826,36.33611965268913L-114.77536834847731,17.60010437852306L-131.42202105762425,21.935375616712967zM35.76500164817447,-114.34755811207123L57.201987286470185,-112.83093637812014L56.36005118751014,-126.4940577021342zM-130.34533886477664,-6.895630737233498L-121.56921358540374,-25.59016458358795L-118.49775015582516,-51.24758310912411zM57.201987286470185,-112.83093637812014L66.81151464838548,-125.8415570218016L56.36005118751014,-126.4940577021342z" style="fill:rgb(83,212,212)"/><path d="M-109.80789315088752,50.4596192179247L-114.77536834847731,17.60010437852306L-119.01191478117826,36.33611965268913z" style="fill:rgb(246,149,167)"/><path d="M-109.39725314635083,-5.838838661609409L-130.34533886477664,-6.895630737233498L-117.83087590492117,12.792958939491413z" style="fill:rgb(242,130,183)"/><path d="M85.43468115307034,-86.1723510545406L57.201987286470185,-112.83093637812014L66.1086096597013,-91.35993574311868z" style="fill:rgb(51,38,177)"/><path d="M93.7873670011926,-65.26929265924899L104.26607272329471,-72.22923556012695L87.5522915043195,-80.87291400692482z" style="fill:rgb(34,46,160)"/><path d="M-134.94909076774374,11.880659722214563L-125.88870020238055,-42.2566900431038L-128.48345289219552,-38.570214474311506zM-122.13850239111451,31.53840624389375L-117.83087590492117,12.792958939491413L-151.93708644091532,21.72384268337387z" style="fill:rgb(83,212,212)"/><path d="M93.7873670011926,-65.26929265924899L110.37031466326201,-56.48391573406116L104.26607272329471,-72.22923556012695z" style="fill:rgb(34,46,160)"/><path d="M-109.39725314635083,-5.838838661609409L-121.56921358540374,-25.59016458358795L-130.34533886477664,-6.895630737233498z" style="fill:rgb(242,130,183)"/><path d="M-119.01191478117826,36.33611965268913L-131.42202105762425,21.935375616712967L-135.9148546223411,40.66224495321696zM132.37654338282763,-98.98394343308279L118.67990159097414,-105.84168596683064L66.1086096597013,-91.35993574311868z" style="fill:rgb(83,212,212)"/><path d="M-122.13850239111451,31.53840624389375L-114.77536834847731,17.60010437852306L-117.83087590492117,12.792958939491413z" style="fill:rgb(246,149,167)"/><path d="M132.37654338282763,-98.98394343308279L66.1086096597013,-91.35993574311868L85.43468115307034,-86.1723510545406zM-122.13850239111451,31.53840624389375L-151.93708644091532,21.72384268337387L-156.76922100186786,40.45117402348411zM57.201987286470185,-112.83093637812014L75.45426756095098,-123.76004588045217L66.81151464838548,-125.8415570218016z" style="fill:rgb(83,212,212)"/><path d="M-122.13850239111451,31.53840624389375L-119.01191478117826,36.33611965268913L-114.77536834847731,17.60010437852306z" style="fill:rgb(246,149,167)"/><path d="M-109.41617774400149,68.65876867894758L-109.80789315088752,50.4596192179247L-119.01191478117826,36.33611965268913z" style="fill:rgb(246,167,149)"/><path d="M85.43468115307034,-86.1723510545406L87.5522915043195,-80.87291400692482L104.26607272329471,-72.22923556012695z" style="fill:rgb(34,46,160)"/><path d="M124.7383046887399,-77.72249901253727L110.43622646138212,-87.08596874523174L87.5522915043195,-80.87291400692482zM-153.49958424305876,37.66421737915772L-128.48345289219552,-38.570214474311506L-137.1464645976666,-26.262323754993858zM132.37654338282763,-98.98394343308279L131.4014284286758,-99.78221816219695L118.67990159097414,-105.84168596683064zM-134.94909076774374,11.880659722214563L-130.34533886477664,-6.895630737233498L-125.88870020238055,-42.2566900431038z" style="fill:rgb(83,212,212)"/><path d="M85.43468115307034,-86.1723510545406L76.76041749494924,-107.88015051444302L57.201987286470185,-112.83093637812014z" style="fill:rgb(51,38,177)"/><path d="M57.201987286470185,-112.83093637812014L76.76041749494924,-107.88015051444302L75.45426756095098,-123.76004588045217zM124.7383046887399,-77.72249901253727L87.5522915043195,-80.87291400692482L104.26607272329471,-72.22923556012695zM124.7383046887399,-77.72249901253727L118.49090611823625,-83.06621807085665L110.43622646138212,-87.08596874523174z" style="fill:rgb(83,212,212)"/><path d="M85.43468115307034,-86.1723510545406L104.26607272329471,-72.22923556012695L102.19223479901031,-77.57850606847408z" style="fill:rgb(34,46,160)"/><path d="M-118.78051455935167,54.54457819625864L-119.01191478117826,36.33611965268913L-135.9148546223411,40.66224495321696zM76.76041749494924,-107.88015051444302L89.35721507737195,-120.41162449059777L75.45426756095098,-123.76004588045217z" style="fill:rgb(83,212,212)"/><path d="M-117.83087590492117,12.792958939491413L-134.94909076774374,11.880659722214563L-122.13850239111451,31.53840624389375z" style="fill:rgb(246,149,167)"/><path d="M102.19223479901031,-77.57850606847408L76.76041749494924,-107.88015051444302L85.43468115307034,-86.1723510545406z" style="fill:rgb(34,46,160)"/><path d="M-117.83087590492117,12.792958939491413L-130.34533886477664,-6.895630737233498L-134.94909076774374,11.880659722214563z" style="fill:rgb(246,149,167)"/><path d="M144.5622877677889,-89.00787250202451L132.37654338282763,-98.98394343308279L85.43468115307034,-86.1723510545406z" style="fill:rgb(83,212,212)"/><path d="M-109.41617774400149,68.65876867894758L-119.01191478117826,36.33611965268913L-118.78051455935167,54.54457819625864z" style="fill:rgb(246,167,149)"/><path d="M110.37031466326201,-56.48391573406116L117.69699468321666,-60.31755144971814L104.26607272329471,-72.22923556012695z" style="fill:rgb(21,57,142)"/><path d="M-121.96262640738767,49.74839801820161L-122.13850239111451,31.53840624389375L-156.76922100186786,40.45117402348411zM-153.49958424305876,37.66421737915772L-137.1464645976666,-26.262323754993858L-147.44221940681706,-4.906383819675814zM144.5622877677889,-89.00787250202451L85.43468115307034,-86.1723510545406L102.19223479901031,-77.57850606847408z" style="fill:rgb(83,212,212)"/><path d="M110.37031466326201,-56.48391573406116L123.71868155816786,-44.457997058827225L117.69699468321666,-60.31755144971814z" style="fill:rgb(21,57,142)"/><path d="M-118.78051455935167,54.54457819625864L-135.9148546223411,40.66224495321696L-135.98796926305437,58.86861306340959z" style="fill:rgb(83,212,212)"/><path d="M-121.96262640738767,49.74839801820161L-119.01191478117826,36.33611965268913L-122.13850239111451,31.53840624389375z" style="fill:rgb(246,167,149)"/><path d="M76.76041749494924,-107.88015051444302L91.72501971341636,-119.28527906515416L89.35721507737195,-120.41162449059777zM-121.96262640738767,49.74839801820161L-156.76922100186786,40.45117402348411L-157.21691516462357,58.65765620293765z" style="fill:rgb(83,212,212)"/><path d="M-121.96262640738767,49.74839801820161L-118.78051455935167,54.54457819625864L-119.01191478117826,36.33611965268913z" style="fill:rgb(246,167,149)"/><path d="M102.19223479901031,-77.57850606847408L104.26607272329471,-72.22923556012695L117.69699468321666,-60.31755144971814z" style="fill:rgb(21,57,142)"/><path d="M-104.37995503244915,85.6527951481792L-109.41617774400149,68.65876867894758L-118.78051455935167,54.54457819625864z" style="fill:rgb(242,183,130)"/><path d="M136.96798434130767,-65.41668692032297L124.7383046887399,-77.72249901253727L104.26607272329471,-72.22923556012695zM76.76041749494924,-107.88015051444302L93.69376563751095,-99.49949137940216L91.72501971341636,-119.28527906515416z" style="fill:rgb(83,212,212)"/><path d="M102.19223479901031,-77.57850606847408L93.69376563751095,-99.49949137940216L76.76041749494924,-107.88015051444302z" style="fill:rgb(34,46,160)"/><path d="M136.96798434130767,-65.41668692032297L104.26607272329471,-72.22923556012695L117.69699468321666,-60.31755144971814zM-153.49958424305876,37.66421737915772L-147.44221940681706,-4.906383819675814L-153.04931165884778,16.645256124453354zM93.69376563751095,-99.49949137940216L104.396541866515,-113.25748169714848L91.72501971341636,-119.28527906515416zM136.96798434130767,-65.41668692032297L134.1403503661174,-69.68041816975071L124.7383046887399,-77.72249901253727z" style="fill:rgb(83,212,212)"/><path d="M102.19223479901031,-77.57850606847408L117.69699468321666,-60.31755144971814L115.65049290589636,-65.70751419085786z" style="fill:rgb(21,57,142)"/><path d="M-113.84653281265425,71.52350579099442L-135.98796926305437,58.86861306340959L-135.9986820223967,61.5421723720433zM-113.84653281265425,71.52350579099442L-118.78051455935167,54.54457819625864L-135.98796926305437,58.86861306340959z" style="fill:rgb(83,212,212)"/><path d="M-122.13850239111451,31.53840624389375L-135.00651220965293,30.0883052829635L-121.96262640738767,49.74839801820161z" style="fill:rgb(246,167,149)"/><path d="M115.65049290589636,-65.70751419085786L93.69376563751095,-99.49949137940216L102.19223479901031,-77.57850606847408z" style="fill:rgb(21,57,142)"/><path d="M155.52537989879426,-76.31529086285025L144.5622877677889,-89.00787250202451L102.19223479901031,-77.57850606847408z" style="fill:rgb(83,212,212)"/><path d="M-122.13850239111451,31.53840624389375L-134.94909076774374,11.880659722214563L-135.00651220965293,30.0883052829635z" style="fill:rgb(246,167,149)"/><path d="M-117.06455513498369,66.72046026176102L-157.21691516462357,58.65765620293765L-157.35204941470923,64.15346410266439z" style="fill:rgb(83,212,212)"/><path d="M-104.37995503244915,85.6527951481792L-118.78051455935167,54.54457819625864L-113.84653281265425,71.52350579099442z" style="fill:rgb(242,183,130)"/><path d="M123.71868155816786,-44.457997058827225L127.15596351169678,-45.40581198325708L117.69699468321666,-60.31755144971814z" style="fill:rgb(12,71,124)"/><path d="M-117.06455513498369,66.72046026176102L-121.96262640738767,49.74839801820161L-157.21691516462357,58.65765620293765zM155.52537989879426,-76.31529086285025L102.19223479901031,-77.57850606847408L115.65049290589636,-65.70751419085786z" style="fill:rgb(83,212,212)"/><path d="M123.71868155816786,-44.457997058827225L133.15164681395277,-29.46808531825674L127.15596351169678,-45.40581198325708z" style="fill:rgb(12,71,124)"/><path d="M-117.06455513498369,66.72046026176102L-118.78051455935167,54.54457819625864L-121.96262640738767,49.74839801820161z" style="fill:rgb(242,183,130)"/><path d="M-113.84653281265425,71.52350579099442L-135.9986820223967,61.5421723720433L-132.09746601434387,76.02520233035901zM155.52537989879426,-76.31529086285025L149.49692189711772,-84.96802049343246L144.5622877677889,-89.00787250202451zM-117.06455513498369,66.72046026176102L-157.35204941470923,64.15346410266439L-154.44953349298214,75.99492469156287zM-153.49958424305876,37.66421737915772L-142.09994781611556,67.67824633143337L-128.48345289219552,-38.570214474311506z" style="fill:rgb(83,212,212)"/><path d="M-117.06455513498369,66.72046026176102L-113.84653281265425,71.52350579099442L-118.78051455935167,54.54457819625864z" style="fill:rgb(242,183,130)"/><path d="M115.65049290589636,-65.70751419085786L117.69699468321666,-60.31755144971814L127.15596351169678,-45.40581198325708z" style="fill:rgb(12,71,124)"/><path d="M107.26026344986715,-87.80519924661151L109.03063554562519,-111.05304938731895L104.396541866515,-113.25748169714848z" style="fill:rgb(83,212,212)"/><path d="M-94.63582215824847,100.70923435014818L-104.37995503244915,85.6527951481792L-113.84653281265425,71.52350579099442z" style="fill:rgb(233,197,112)"/><path d="M146.0794558881251,-50.33404017468841L136.96798434130767,-65.41668692032297L117.69699468321666,-60.31755144971814zM93.69376563751095,-99.49949137940216L107.26026344986715,-87.80519924661151L104.396541866515,-113.25748169714848zM107.26026344986715,-87.80519924661151L112.52174397679526,-108.16153467207339L109.03063554562519,-111.05304938731895z" style="fill:rgb(83,212,212)"/><path d="M115.65049290589636,-65.70751419085786L107.26026344986715,-87.80519924661151L93.69376563751095,-99.49949137940216z" style="fill:rgb(21,57,142)"/><path d="M146.0794558881251,-50.33404017468841L117.69699468321666,-60.31755144971814L127.15596351169678,-45.40581198325708z" style="fill:rgb(83,212,212)"/><path d="M115.65049290589636,-65.70751419085786L127.15596351169678,-45.40581198325708L125.11753536043183,-50.82432264074765z" style="fill:rgb(12,71,124)"/><path d="M146.0794558881251,-50.33404017468841L145.33829517468007,-52.79524296838896L136.96798434130767,-65.41668692032297zM-104.13536657592333,86.53845457007388L-113.84653281265425,71.52350579099442L-132.09746601434387,76.02520233035901zM-104.13536657592333,86.53845457007388L-132.09746601434387,76.02520233035901L-130.72178860026506,81.13229317414292zM164.27330172771818,-61.07745637833212L155.52537989879426,-76.31529086285025L115.65049290589636,-65.70751419085786z" style="fill:rgb(83,212,212)"/><path d="M-121.96262640738767,49.74839801820161L-130.2617751932626,47.02301353039645L-117.06455513498369,66.72046026176102z" style="fill:rgb(242,183,130)"/><path d="M125.11753536043183,-50.82432264074765L107.26026344986715,-87.80519924661151L115.65049290589636,-65.70751419085786z" style="fill:rgb(12,71,124)"/><path d="M-121.96262640738767,49.74839801820161L-135.00651220965293,30.0883052829635L-130.2617751932626,47.02301353039645z" style="fill:rgb(242,183,130)"/><path d="M145.33829517468007,-52.79524296838896L157.11394925935545,-16.738836941027486L151.07784435184553,-36.71983777319725z" style="fill:rgb(246,167,149)"/><path d="M-94.63582215824847,100.70923435014818L-113.84653281265425,71.52350579099442L-104.13536657592333,86.53845457007388z" style="fill:rgb(233,197,112)"/><path d="M-107.36580230174917,81.71951971626342L-117.06455513498369,66.72046026176102L-154.44953349298214,75.99492469156287zM164.27330172771818,-61.07745637833212L115.65049290589636,-65.70751419085786L125.11753536043183,-50.82432264074765zM116.75652034571966,-73.0495906527858L115.37682699277978,-105.79677480068396L112.52174397679526,-108.16153467207339zM-107.36580230174917,81.71951971626342L-154.44953349298214,75.99492469156287L-151.8682635552479,86.52571961218793z" style="fill:rgb(83,212,212)"/><path d="M-107.36580230174917,81.71951971626342L-113.84653281265425,71.52350579099442L-117.06455513498369,66.72046026176102z" style="fill:rgb(233,197,112)"/><path d="M-142.09994781611556,67.67824633143337L-135.00651220965293,30.0883052829635L-134.94909076774374,11.880659722214563zM-104.13536657592333,86.53845457007388L-130.72178860026506,81.13229317414292L-124.35469964340975,91.4363709336752zM164.27330172771818,-61.07745637833212L162.64320624161917,-66.09893692348254L155.52537989879426,-76.31529086285025zM107.26026344986715,-87.80519924661151L116.75652034571966,-73.0495906527858L112.52174397679526,-108.16153467207339z" style="fill:rgb(83,212,212)"/><path d="M-107.36580230174917,81.71951971626342L-104.13536657592333,86.53845457007388L-113.84653281265425,71.52350579099442z" style="fill:rgb(233,197,112)"/><path d="M-107.36580230174917,81.71951971626342L-151.8682635552479,86.52571961218793L-148.7653107612661,91.8069916598808zM151.34202187153716,-32.85809135359964L146.0794558881251,-50.33404017468841L127.15596351169678,-45.40581198325708z" style="fill:rgb(83,212,212)"/><path d="M145.33829517468007,-52.79524296838896L151.34202187153716,-32.85809135359964L157.11394925935545,-16.738836941027486z" style="fill:rgb(246,167,149)"/><path d="M125.11753536043183,-50.82432264074765L116.75652034571966,-73.0495906527858L107.26026344986715,-87.80519924661151z" style="fill:rgb(12,71,124)"/><path d="M162.64320624161917,-66.09893692348254L171.8045193953444,-38.09525525640418L164.50253616793066,-60.583721855813046z" style="fill:rgb(246,167,149)"/><path d="M151.34202187153716,-32.85809135359964L127.15596351169678,-45.40581198325708L132.037638498191,-27.91734224650296zM-153.49958424305876,37.66421737915772L-148.44503399109888,57.344662464622466L-142.09994781611556,67.67824633143337zM-89.7749583466957,98.85607284742252L-104.13536657592333,86.53845457007388L-124.35469964340975,91.4363709336752zM169.93658595907726,-43.6317389172991L164.27330172771818,-61.07745637833212L125.11753536043183,-50.82432264074765zM-89.7749583466957,98.85607284742252L-124.35469964340975,91.4363709336752L-119.94076933677728,98.57956360606711z" style="fill:rgb(83,212,212)"/><path d="M-117.06455513498369,66.72046026176102L-120.62024803895791,61.94743188290279L-107.36580230174917,81.71951971626342z" style="fill:rgb(233,197,112)"/><path d="M-103.74333101714434,113.01362883336374L-119.94076933677728,98.57956360606711L-110.17181166845974,112.6218021215444z" style="fill:rgb(34,46,160)"/><path d="M-140.14527185711157,70.86163796172073L-130.2617751932626,47.02301353039645L-135.00651220965293,30.0883052829635z" style="fill:rgb(83,212,212)"/><path d="M-117.06455513498369,66.72046026176102L-130.2617751932626,47.02301353039645L-120.62024803895791,61.94743188290279z" style="fill:rgb(233,197,112)"/><path d="M-103.74333101714434,113.01362883336374L-110.17181166845974,112.6218021215444L-94.0173876845816,127.12856151844318z" style="fill:rgb(34,46,160)"/><path d="M-92.99116889261416,94.0115591372124L-107.36580230174917,81.71951971626342L-148.7653107612661,91.8069916598808z" style="fill:rgb(83,212,212)"/><path d="M151.34202187153716,-32.85809135359964L157.44118716877364,5.584985780321269L157.11394925935545,-16.738836941027486z" style="fill:rgb(246,149,167)"/><path d="M116.75652034571966,-73.0495906527858L121.56365669803435,-55.64228905421969L115.37682699277978,-105.79677480068396zM169.93658595907726,-43.6317389172991L125.11753536043183,-50.82432264074765L129.9854059394382,-33.34966588845846z" style="fill:rgb(83,212,212)"/><path d="M136.31554523942992,-81.06218035717694L150.3531599345251,-38.59163497857346L144.302158660786,-58.633310708926814z" style="fill:rgb(246,167,149)"/><path d="M-92.99116889261416,94.0115591372124L-148.7653107612661,91.8069916598808L-140.7455444093995,105.45667331820185zM-142.09994781611556,67.67824633143337L-140.14527185711157,70.86163796172073L-135.00651220965293,30.0883052829635zM-89.7749583466957,98.85607284742252L-119.94076933677728,98.57956360606711L-113.33232801067705,104.46854625665583z" style="fill:rgb(83,212,212)"/><path d="M162.64320624161917,-66.09893692348254L169.93658595907726,-43.6317389172991L171.8045193953444,-38.09525525640418z" style="fill:rgb(246,167,149)"/><path d="M151.5277896579613,-13.380763053467806L151.34202187153716,-32.85809135359964L132.037638498191,-27.91734224650296z" style="fill:rgb(83,212,212)"/><path d="M-118.60296246689653,128.07452927357446L-140.08074189429243,106.58815442834617L-136.66065434768387,111.31736420490049z" style="fill:rgb(34,46,160)"/><path d="M151.34202187153716,-32.85809135359964L151.5550589869806,-10.520348719733242L157.44118716877364,5.584985780321269z" style="fill:rgb(246,149,167)"/><path d="M151.5277896579613,-13.380763053467806L132.037638498191,-27.91734224650296L131.87630635164845,-8.442569180012335z" style="fill:rgb(83,212,212)"/><path d="M-72.9176229222157,137.82534802094185L-103.74333101714434,113.01362883336374L-94.0173876845816,127.12856151844318z" style="fill:rgb(51,38,177)"/><path d="M128.45159243118886,0.1958142584224614L124.96505456473675,-97.85523598645804L115.37682699277978,-105.79677480068396zM-74.3069418927487,102.91094145262767L-140.7455444093995,105.45667331820185L-140.08074189429243,106.58815442834617zM-140.14527185711157,70.86163796172073L-133.98293269226284,78.10764867090661L-130.2617751932626,47.02301353039645zM-71.13339275681697,107.79125475591012L-89.7749583466957,98.85607284742252L-113.33232801067705,104.46854625665583zM-133.98293269226284,78.10764867090661L-120.62024803895791,61.94743188290279L-130.2617751932626,47.02301353039645z" style="fill:rgb(83,212,212)"/><path d="M136.31554523942992,-81.06218035717694L142.31401258997653,-61.104493719643685L150.3531599345251,-38.59163497857346z" style="fill:rgb(246,167,149)"/><path d="M-71.13339275681697,107.79125475591012L-113.33232801067705,104.46854625665583L-103.74333101714434,113.01362883336374zM170.46276935278553,-24.151668099077206L169.93658595907726,-43.6317389172991L129.9854059394382,-33.34966588845846zM-74.3069418927487,102.91094145262767L-92.99116889261416,94.0115591372124L-140.7455444093995,105.45667331820185z" style="fill:rgb(83,212,212)"/><path d="M169.93658595907726,-43.6317389172991L172.53004283731545,-12.735006621466004L171.8045193953444,-38.09525525640418z" style="fill:rgb(246,149,167)"/><path d="M-74.3069418927487,102.91094145262767L-140.08074189429243,106.58815442834617L-129.87159085925722,116.04079745583938z" style="fill:rgb(83,212,212)"/><path d="M-118.60296246689653,128.07452927357446L-122.01179701262176,123.31812767240507L-140.08074189429243,106.58815442834617z" style="fill:rgb(34,46,160)"/><path d="M170.46276935278553,-24.151668099077206L129.9854059394382,-33.34966588845846L129.7862249053711,-13.872126870363477z" style="fill:rgb(83,212,212)"/><path d="M151.5550589869806,-10.520348719733242L151.69445361254824,29.389367161282618L157.44118716877364,5.584985780321269z" style="fill:rgb(242,130,183)"/><path d="M-71.13339275681697,107.79125475591012L-103.74333101714434,113.01362883336374L-100.42024596863902,114.67021863585259zM-140.14527185711157,70.86163796172073L-137.71262202365992,74.82343550501517L-133.98293269226284,78.10764867090661z" style="fill:rgb(83,212,212)"/><path d="M-121.36530191708101,89.21823290105925L-137.71262202365992,74.82343550501517L-124.06096705180454,94.41053835007362zM-121.36530191708101,89.21823290105925L-124.06096705180454,94.41053835007362L-107.76017597621575,108.92608097554682z" style="fill:rgb(34,46,160)"/><path d="M142.31401258997653,-61.104493719643685L150.54807263454353,-16.10791277409496L150.3531599345251,-38.59163497857346z" style="fill:rgb(246,149,167)"/><path d="M-72.9176229222157,137.82534802094185L-82.50166945362798,123.60278334758574L-103.74333101714434,113.01362883336374z" style="fill:rgb(51,38,177)"/><path d="M128.45159243118886,0.1958142584224614L136.31554523942992,-81.06218035717694L124.96505456473675,-97.85523598645804zM147.15429875662963,7.14616153903956L151.5277896579613,-13.380763053467806L131.87630635164845,-8.442569180012335z" style="fill:rgb(83,212,212)"/><path d="M169.93658595907726,-43.6317389172991L170.6216456004831,-18.269579256564963L172.53004283731545,-12.735006621466004z" style="fill:rgb(246,149,167)"/><path d="M147.15429875662963,7.14616153903956L151.5550589869806,-10.520348719733242L151.5277896579613,-13.380763053467806zM-133.98293269226284,78.10764867090661L-123.40583351831954,87.42142546159896L-120.62024803895791,61.94743188290279zM147.15429875662963,7.14616153903956L131.87630635164845,-8.442569180012335L126.40681976311855,12.263647680175668zM-48.84183839377965,112.7647162834775L-71.13339275681697,107.79125475591012L-100.42024596863902,114.67021863585259z" style="fill:rgb(83,212,212)"/><path d="M151.5550589869806,-10.520348719733242L145.6067601695731,13.358626056591207L151.69445361254824,29.389367161282618z" style="fill:rgb(242,130,183)"/><path d="M-47.56785825950206,143.9934645876998L-82.50166945362798,123.60278334758574L-72.9176229222157,137.82534802094185z" style="fill:rgb(71,33,192)"/><path d="M-48.84183839377965,112.7647162834775L-100.42024596863902,114.67021863585259L-86.63107130807872,121.54423344067506zM-51.944319382708485,107.83824043508336L-129.87159085925722,116.04079745583938L-122.01179701262176,123.31812767240507zM-123.40583351831954,87.42142546159896L-106.19351765619544,74.12512487583844L-120.62024803895791,61.94743188290279z" style="fill:rgb(83,212,212)"/><path d="M-94.65957593180228,140.51256170660383L-122.01179701262176,123.31812767240507L-118.60296246689653,128.07452927357446z" style="fill:rgb(51,38,177)"/><path d="M-51.944319382708485,107.83824043508336L-74.3069418927487,102.91094145262767L-129.87159085925722,116.04079745583938zM167.21424601806925,-3.8034314400120643L170.46276935278553,-24.151668099077206L129.7862249053711,-13.872126870363477zM-51.944319382708485,107.83824043508336L-122.01179701262176,123.31812767240507L-120.81532254234007,123.93630263041814z" style="fill:rgb(83,212,212)"/><path d="M-86.34199626340936,119.56197158297823L-121.36530191708101,89.21823290105925L-107.76017597621575,108.92608097554682z" style="fill:rgb(51,38,177)"/><path d="M167.21424601806925,-3.8034314400120643L129.7862249053711,-13.872126870363477L124.253852670606,6.854183717551454z" style="fill:rgb(83,212,212)"/><path d="M142.31401258997653,-61.104493719643685L142.3413736787305,-38.62297206519381L150.54807263454353,-16.10791277409496z" style="fill:rgb(246,149,167)"/><path d="M145.6067601695731,13.358626056591207L139.80779438120283,53.630459525238244L151.69445361254824,29.389367161282618z" style="fill:rgb(233,112,197)"/><path d="M167.21424601806925,-3.8034314400120643L170.6216456004831,-18.269579256564963L170.46276935278553,-24.151668099077206zM128.45159243118886,0.1958142584224614L142.31401258997653,-61.104493719643685L136.31554523942992,-81.06218035717694z" style="fill:rgb(83,212,212)"/><path d="M170.6216456004831,-18.269579256564963L166.1765338546254,14.531692989412235L172.53004283731545,-12.735006621466004z" style="fill:rgb(242,130,183)"/><path d="M-23.793920450497836,113.36550566818009L-86.63107130807872,121.54423344067506L-82.50166945362798,123.60278334758574zM138.39945115022329,27.786945662454723L147.15429875662963,7.14616153903956L126.40681976311855,12.263647680175668z" style="fill:rgb(83,212,212)"/><path d="M-94.65957593180228,140.51256170660383L-98.01751090492816,135.7155339851562L-122.01179701262176,123.31812767240507z" style="fill:rgb(51,38,177)"/><path d="M-47.56785825950206,143.9934645876998L-56.91004769151057,129.62637147025612L-82.50166945362798,123.60278334758574z" style="fill:rgb(71,33,192)"/><path d="M-26.79922747783004,108.3830500447576L-120.81532254234007,123.93630263041814L-112.43947743950432,128.26397386936407zM-23.793920450497836,113.36550566818009L-48.84183839377965,112.7647162834775L-86.63107130807872,121.54423344067506z" style="fill:rgb(83,212,212)"/><path d="M142.3413736787305,-38.62297206519381L144.50847717629412,7.954512057580673L150.54807263454353,-16.10791277409496z" style="fill:rgb(242,130,183)"/><path d="M-23.793920450497836,113.36550566818009L-82.50166945362798,123.60278334758574L-75.40349899397933,125.27351632678668zM138.39945115022329,27.786945662454723L126.40681976311855,12.263647680175668L115.6229827849038,33.304304616681584zM138.39945115022329,27.786945662454723L145.6067601695731,13.358626056591207L147.15429875662963,7.14616153903956zM-123.40583351831954,87.42142546159896L-108.2363365307567,95.57876062015126L-106.19351765619544,74.12512487583844zM-26.79922747783004,108.3830500447576L-51.944319382708485,107.83824043508336L-120.81532254234007,123.93630263041814zM-123.40583351831954,87.42142546159896L-121.36530191708101,89.21823290105925L-108.2363365307567,95.57876062015126z" style="fill:rgb(83,212,212)"/><path d="M-18.985135949098005,145.10430654837776L-56.91004769151057,129.62637147025612L-47.56785825950206,143.9934645876998z" style="fill:rgb(92,32,204)"/><path d="M145.6067601695731,13.358626056591207L133.43123030617178,37.732797084130446L139.80779438120283,53.630459525238244z" style="fill:rgb(233,112,197)"/><path d="M-108.2363365307567,95.57876062015126L-87.33996828708183,82.86864399050985L-106.19351765619544,74.12512487583844zM3.9907855348271606e-14,104.3613794887426L-112.43947743950432,128.26397386936407L-109.58158337331129,129.74058017382245zM2.886709653629776,109.40812920258963L-75.40349899397933,125.27351632678668L-70.7720990278902,126.36362363641607z" style="fill:rgb(83,212,212)"/><path d="M170.6216456004831,-18.269579256564963L164.1928508103718,9.023834469823612L166.1765338546254,14.531692989412235z" style="fill:rgb(242,130,183)"/><path d="M-86.34199626340936,119.56197158297823L-99.76038433441032,99.68504102663158L-121.36530191708101,89.21823290105925z" style="fill:rgb(51,38,177)"/><path d="M160.57184035041374,16.43343274637702L167.21424601806925,-3.8034314400120643L124.253852670606,6.854183717551454zM126.13316246148992,4.695258260426306L121.56365669803435,-55.64228905421969L121.20524255075915,-36.163756566032575zM160.57184035041374,16.43343274637702L124.253852670606,6.854183717551454L113.38257259942613,27.93164229587072z" style="fill:rgb(83,212,212)"/><path d="M133.43123030617178,37.732797084130446L122.07599496815324,77.13537920857009L139.80779438120283,53.630459525238244z" style="fill:rgb(220,94,208)"/><path d="M2.886709653629776,109.40812920258963L-23.793920450497836,113.36550566818009L-75.40349899397933,125.27351632678668zM128.45159243118886,0.1958142584224614L142.3413736787305,-38.62297206519381L142.31401258997653,-61.104493719643685z" style="fill:rgb(83,212,212)"/><path d="M-65.5795510287212,147.7446433025167L-98.01751090492816,135.7155339851562L-94.65957593180228,140.51256170660383z" style="fill:rgb(71,33,192)"/><path d="M126.00932053985129,47.44606645803145L138.39945115022329,27.786945662454723L115.6229827849038,33.304304616681584z" style="fill:rgb(83,212,212)"/><path d="M-60.50310303756399,125.58944641360384L-99.76038433441032,99.68504102663158L-86.34199626340936,119.56197158297823z" style="fill:rgb(71,33,192)"/><path d="M3.9907855348271606e-14,104.3613794887426L-26.79922747783004,108.3830500447576L-112.43947743950432,128.26397386936407zM126.00932053985129,47.44606645803145L115.6229827849038,33.304304616681584L99.8209329469729,53.685376648037646z" style="fill:rgb(83,212,212)"/><path d="M142.3413736787305,-38.62297206519381L136.0113498856811,-14.475568650500076L144.50847717629412,7.954512057580673z" style="fill:rgb(242,130,183)"/><path d="M160.57184035041374,16.43343274637702L164.1928508103718,9.023834469823612L167.21424601806925,-3.8034314400120643z" style="fill:rgb(83,212,212)"/><path d="M-18.985135949098005,145.10430654837776L-27.992878483600464,130.55621698291273L-56.91004769151057,129.62637147025612z" style="fill:rgb(92,32,204)"/><path d="M126.00932053985129,47.44606645803145L133.43123030617178,37.732797084130446L138.39945115022329,27.786945662454723z" style="fill:rgb(83,212,212)"/><path d="M11.525796311061338,140.89590225596456L-27.992878483600464,130.55621698291273L-18.985135949098005,145.10430654837776z" style="fill:rgb(115,34,214)"/><path d="M-108.2363365307567,95.57876062015126L-88.83512170519239,102.10989813197574L-87.33996828708183,82.86864399050985zM34.31661055750337,116.43092213108616L-70.7720990278902,126.36362363641607L-56.91004769151057,129.62637147025612z" style="fill:rgb(83,212,212)"/><path d="M164.1928508103718,9.023834469823612L152.5952671236937,42.49844879817197L166.1765338546254,14.531692989412235zM136.0113498856811,-14.475568650500076L132.1650144635778,32.54141951369143L144.50847717629412,7.954512057580673z" style="fill:rgb(233,112,197)"/><path d="M133.43123030617178,37.732797084130446L115.3306441870154,61.421588699438026L122.07599496815324,77.13537920857009z" style="fill:rgb(220,94,208)"/><path d="M-65.5795510287212,147.7446433025167L-68.84576476471649,142.89237124386577L-98.01751090492816,135.7155339851562z" style="fill:rgb(71,33,192)"/><path d="M126.13316246148992,4.695258260426306L128.45159243118886,0.1958142584224614L121.56365669803435,-55.64228905421969z" style="fill:rgb(83,212,212)"/><path d="M115.3306441870154,61.421588699438026L99.18375945391671,98.68445119504784L122.07599496815324,77.13537920857009z" style="fill:rgb(203,77,216)"/><path d="M-108.2363365307567,95.57876062015126L-99.76038433441032,99.68504102663158L-88.83512170519239,102.10989813197574zM151.26841020687257,35.47074228226214L113.38257259942613,27.93164229587072L97.47107215251579,48.36415556935912zM151.26841020687257,35.47074228226214L160.57184035041374,16.43343274637702L113.38257259942613,27.93164229587072zM118.92083578149982,15.832043047347064L121.20524255075915,-36.163756566032575L115.4108105678331,-15.364483163138727zM-88.83512170519239,102.10989813197574L-64.69051240523142,87.59837680480723L-87.33996828708183,82.86864399050985zM111.64767248044245,64.85920488287358L126.00932053985129,47.44606645803145L99.8209329469729,53.685376648037646zM111.64767248044245,64.85920488287358L99.8209329469729,53.685376648037646L79.61662479148531,72.38273088764419zM36.29822102159111,128.07871424870078L-109.58158337331129,129.74058017382245L-98.01751090492816,135.7155339851562zM128.45159243118886,0.1958142584224614L136.0113498856811,-14.475568650500076L142.3413736787305,-38.62297206519381zM34.31661055750337,116.43092213108616L-56.91004769151057,129.62637147025612L-27.992878483600464,130.55621698291273z" style="fill:rgb(83,212,212)"/><path d="M-60.50310303756399,125.58944641360384L-73.59199704788851,105.49306857473239L-99.76038433441032,99.68504102663158z" style="fill:rgb(71,33,192)"/><path d="M42.45151197436046,131.42995884531175L2.9286763665245106,126.13435071773335L11.525796311061338,140.89590225596456z" style="fill:rgb(139,40,220)"/><path d="M11.525796311061338,140.89590225596456L2.9286763665245106,126.13435071773335L-27.992878483600464,130.55621698291273z" style="fill:rgb(115,34,214)"/><path d="M164.1928508103718,9.023834469823612L150.5007382973557,37.04155264712133L152.5952671236937,42.49844879817197z" style="fill:rgb(233,112,197)"/><path d="M111.64767248044245,64.85920488287358L115.3306441870154,61.421588699438026L126.00932053985129,47.44606645803145zM34.31661055750337,116.43092213108616L79.32641492091675,91.81250978842007L-70.7720990278902,126.36362363641607z" style="fill:rgb(83,212,212)"/><path d="M92.00556486361381,83.1926467604171L72.18835729540395,117.11475548705789L99.18375945391671,98.68445119504784z" style="fill:rgb(183,62,221)"/><path d="M96.49996646495326,78.99766961222495L79.61662479148531,72.38273088764419L55.92692808732723,88.42394231655436zM79.32641492091675,91.81250978842007L29.91244768016909,100.97369984386049L2.886709653629776,109.40812920258963z" style="fill:rgb(83,212,212)"/><path d="M-31.276822749991258,126.47422726064173L-73.59199704788851,105.49306857473239L-60.50310303756399,125.58944641360384z" style="fill:rgb(92,32,204)"/><path d="M115.3306441870154,61.421588699438026L92.00556486361381,83.1926467604171L99.18375945391671,98.68445119504784z" style="fill:rgb(203,77,216)"/><path d="M96.49996646495326,78.99766961222495L111.64767248044245,64.85920488287358L79.61662479148531,72.38273088764419zM118.92083578149982,15.832043047347064L126.13316246148992,4.695258260426306L121.20524255075915,-36.163756566032575zM84.31451516128723,88.42137059829247L55.92692808732723,88.42394231655436L29.91244768016909,100.97369984386049z" style="fill:rgb(83,212,212)"/><path d="M64.53709292577813,101.86696281003282L42.45151197436046,131.42995884531175L72.18835729540395,117.11475548705789z" style="fill:rgb(162,50,222)"/><path d="M-32.52238053744014,149.10017063748538L-68.84576476471649,142.89237124386577L-65.5795510287212,147.7446433025167z" style="fill:rgb(92,32,204)"/><path d="M138.77982628808854,52.55882724690182L97.47107215251579,48.36415556935912L77.14003172070966,67.1242277817123z" style="fill:rgb(83,212,212)"/><path d="M136.0113498856811,-14.475568650500076L123.25461117195572,10.281680138002272L132.1650144635778,32.54141951369143z" style="fill:rgb(233,112,197)"/><path d="M138.77982628808854,52.55882724690182L151.26841020687257,35.47074228226214L97.47107215251579,48.36415556935912zM-88.83512170519239,102.10989813197574L-65.72547744453351,105.65636705242845L-64.69051240523142,87.59837680480723z" style="fill:rgb(83,212,212)"/><path d="M42.45151197436046,131.42995884531175L34.31661055750337,116.43092213108616L2.9286763665245106,126.13435071773335z" style="fill:rgb(139,40,220)"/><path d="M84.31451516128723,88.42137059829247L96.49996646495326,78.99766961222495L55.92692808732723,88.42394231655436zM34.31661055750337,116.43092213108616L-27.992878483600464,130.55621698291273L2.9286763665245106,126.13435071773335zM36.29822102159111,128.07871424870078L-98.01751090492816,135.7155339851562L-68.84576476471649,142.89237124386577z" style="fill:rgb(83,212,212)"/><path d="M123.25461117195572,10.281680138002272L113.82246822896853,56.46008330065796L132.1650144635778,32.54141951369143z" style="fill:rgb(220,94,208)"/><path d="M79.32641492091675,91.81250978842007L84.31451516128723,88.42137059829247L29.91244768016909,100.97369984386049z" style="fill:rgb(83,212,212)"/><path d="M92.00556486361381,83.1926467604171L64.53709292577813,101.86696281003282L72.18835729540395,117.11475548705789z" style="fill:rgb(183,62,221)"/><path d="M106.72392313554845,31.452878012021948L115.4108105678331,-15.364483163138727L104.17694884340804,5.855924996723792z" style="fill:rgb(83,212,212)"/><path d="M64.53709292577813,101.86696281003282L34.31661055750337,116.43092213108616L42.45151197436046,131.42995884531175z" style="fill:rgb(162,50,222)"/><path d="M150.5007382973557,37.04155264712133L132.08043123695458,69.77634315525115L152.5952671236937,42.49844879817197z" style="fill:rgb(220,94,208)"/><path d="M-65.72547744453351,105.65636705242845L-39.15019287470286,87.90656760581506L-64.69051240523142,87.59837680480723zM128.48778891604337,65.66363150750992L77.14003172070966,67.1242277817123L53.3130654414562,83.23513946169179zM-88.83512170519239,102.10989813197574L-73.59199704788851,105.49306857473239L-65.72547744453351,105.65636705242845zM115.85651749964714,77.52889799154487L27.158965730553593,95.8569496209251L3.9907855348271606e-14,104.3613794887426zM138.77982628808854,52.55882724690182L150.5007382973557,37.04155264712133L151.26841020687257,35.47074228226214zM84.31451516128723,88.42137059829247L92.00556486361381,83.1926467604171L96.49996646495326,78.99766961222495z" style="fill:rgb(83,212,212)"/><path d="M-32.52238053744014,149.10017063748538L-35.65848732293506,144.17778517853526L-68.84576476471649,142.89237124386577z" style="fill:rgb(92,32,204)"/><path d="M119.05586232357327,74.52358812616806L53.3130654414562,83.23513946169179L27.158965730553593,95.8569496209251zM36.29822102159111,128.07871424870078L115.85651749964714,77.52889799154487L-109.58158337331129,129.74058017382245zM128.48778891604337,65.66363150750992L138.77982628808854,52.55882724690182L77.14003172070966,67.1242277817123zM106.72392313554845,31.452878012021948L118.92083578149982,15.832043047347064L115.4108105678331,-15.364483163138727zM34.31661055750337,116.43092213108616L64.53709292577813,101.86696281003282L79.32641492091675,91.81250978842007z" style="fill:rgb(83,212,212)"/><path d="M-31.276822749991258,126.47422726064173L-43.90294073270566,106.10940414273226L-73.59199704788851,105.49306857473239z" style="fill:rgb(92,32,204)"/><path d="M4.5847160326418597e-14,121.95578947047925L-43.90294073270566,106.10940414273226L-31.276822749991258,126.47422726064173z" style="fill:rgb(115,34,214)"/><path d="M150.5007382973557,37.04155264712133L129.84192599455835,64.39166236447667L132.08043123695458,69.77634315525115z" style="fill:rgb(220,94,208)"/><path d="M118.92083578149982,15.832043047347064L123.25461117195572,10.281680138002272L126.13316246148992,4.695258260426306z" style="fill:rgb(83,212,212)"/><path d="M2.9740750325236216,144.22840887992047L-35.65848732293506,144.17778517853526L-32.52238053744014,149.10017063748538z" style="fill:rgb(115,34,214)"/><path d="M119.05586232357327,74.52358812616806L128.48778891604337,65.66363150750992L53.3130654414562,83.23513946169179zM36.29822102159111,128.07871424870078L-68.84576476471649,142.89237124386577L-35.65848732293506,144.17778517853526z" style="fill:rgb(83,212,212)"/><path d="M104.38664271281769,34.446271083966664L90.19088898042878,78.46295309443539L113.82246822896853,56.46008330065796z" style="fill:rgb(203,77,216)"/><path d="M-65.72547744453351,105.65636705242845L-39.75961233741767,105.48116179334733L-39.15019287470286,87.90656760581506zM89.58697431604291,48.0623437389616L104.17694884340804,5.855924996723792L87.81288618325989,26.493372460629224z" style="fill:rgb(83,212,212)"/><path d="M123.25461117195572,10.281680138002272L104.38664271281769,34.446271083966664L113.82246822896853,56.46008330065796z" style="fill:rgb(220,94,208)"/><path d="M115.85651749964714,77.52889799154487L119.05586232357327,74.52358812616806L27.158965730553593,95.8569496209251zM-39.75961233741767,105.48116179334733L-11.866344973863164,83.61579704821102L-39.15019287470286,87.90656760581506zM128.48778891604337,65.66363150750992L129.84192599455835,64.39166236447667L138.77982628808854,52.55882724690182z" style="fill:rgb(83,212,212)"/><path d="M129.84192599455835,64.39166236447667L105.4172365546269,94.89492502234988L132.08043123695458,69.77634315525115z" style="fill:rgb(203,77,216)"/><path d="M89.58697431604291,48.0623437389616L106.72392313554845,31.452878012021948L104.17694884340804,5.855924996723792zM-65.72547744453351,105.65636705242845L-43.90294073270566,106.10940414273226L-39.75961233741767,105.48116179334733z" style="fill:rgb(83,212,212)"/><path d="M2.9740750325236216,144.22840887992047L5.16757876932213e-14,139.2223315826663L-35.65848732293506,144.17778517853526z" style="fill:rgb(115,34,214)"/><path d="M31.767914195542986,112.10647478152902L-12.05270871816668,101.27998594930293L4.5847160326418597e-14,121.95578947047925z" style="fill:rgb(139,40,220)"/><path d="M80.14024471340461,56.75354441097278L62.368158624273555,97.35476121849132L90.19088898042878,78.46295309443539z" style="fill:rgb(183,62,221)"/><path d="M4.5847160326418597e-14,121.95578947047925L-12.05270871816668,101.27998594930293L-43.90294073270566,106.10940414273226z" style="fill:rgb(115,34,214)"/><path d="M68.15066176569616,64.84642469191516L87.81288618325989,26.493372460629224L66.95893835994129,45.50689752410854z" style="fill:rgb(83,212,212)"/><path d="M129.84192599455835,64.39166236447667L103.00778988669938,89.59843756308662L105.4172365546269,94.89492502234988z" style="fill:rgb(203,77,216)"/><path d="M36.29822102159111,128.07871424870078L-35.65848732293506,144.17778517853526L5.16757876932213e-14,139.2223315826663z" style="fill:rgb(83,212,212)"/><path d="M39.088519394962084,133.1788029702843L5.16757876932213e-14,139.2223315826663L2.9740750325236216,144.22840887992047z" style="fill:rgb(139,40,220)"/><path d="M-12.05270871816668,101.27998594930293L15.838793941320054,74.82085090350988L-11.866344973863164,83.61579704821102z" style="fill:rgb(83,212,212)"/><path d="M51.64751713993102,75.98586143773966L31.767914195542986,112.10647478152902L62.368158624273555,97.35476121849132z" style="fill:rgb(162,50,222)"/><path d="M-39.75961233741767,105.48116179334733L-12.05270871816668,101.27998594930293L-11.866344973863164,83.61579704821102z" style="fill:rgb(83,212,212)"/><path d="M104.38664271281769,34.446271083966664L80.14024471340461,56.75354441097278L90.19088898042878,78.46295309443539z" style="fill:rgb(203,77,216)"/><path d="M103.00778988669938,89.59843756308662L73.86847751826294,116.4359902386475L105.4172365546269,94.89492502234988z" style="fill:rgb(183,62,221)"/><path d="M68.15066176569616,64.84642469191516L89.58697431604291,48.0623437389616L87.81288618325989,26.493372460629224zM43.2663315253456,80.03243823667854L66.95893835994129,45.50689752410854L42.56667363247519,61.90239034698065zM16.088780362742757,92.43387761395387L42.56667363247519,61.90239034698065L15.838793941320054,74.82085090350988z" style="fill:rgb(83,212,212)"/><path d="M39.088519394962084,133.1788029702843L36.29822102159111,128.07871424870078L5.16757876932213e-14,139.2223315826663z" style="fill:rgb(139,40,220)"/><path d="M36.29822102159111,128.07871424870078L103.00778988669938,89.59843756308662L115.85651749964714,77.52889799154487zM89.58697431604291,48.0623437389616L104.38664271281769,34.446271083966664L106.72392313554845,31.452878012021948z" style="fill:rgb(83,212,212)"/><path d="M73.86847751826294,116.4359902386475L36.29822102159111,128.07871424870078L39.088519394962084,133.1788029702843z" style="fill:rgb(162,50,222)"/><path d="M31.767914195542986,112.10647478152902L20.364666778713186,91.08977248373563L-12.05270871816668,101.27998594930293z" style="fill:rgb(139,40,220)"/><path d="M103.00778988669938,89.59843756308662L71.27092680858492,111.2368336062762L73.86847751826294,116.4359902386475z" style="fill:rgb(183,62,221)"/><path d="M73.86847751826294,116.4359902386475L71.27092680858492,111.2368336062762L36.29822102159111,128.07871424870078z" style="fill:rgb(162,50,222)"/><path d="M80.14024471340461,56.75354441097278L51.64751713993102,75.98586143773966L62.368158624273555,97.35476121849132z" style="fill:rgb(183,62,221)"/><path d="M36.29822102159111,128.07871424870078L71.27092680858492,111.2368336062762L103.00778988669938,89.59843756308662zM-12.05270871816668,101.27998594930293L16.088780362742757,92.43387761395387L15.838793941320054,74.82085090350988z" style="fill:rgb(83,212,212)"/><path d="M51.64751713993102,75.98586143773966L20.364666778713186,91.08977248373563L31.767914195542986,112.10647478152902z" style="fill:rgb(162,50,222)"/><path d="M43.2663315253456,80.03243823667854L68.15066176569616,64.84642469191516L66.95893835994129,45.50689752410854zM16.088780362742757,92.43387761395387L43.2663315253456,80.03243823667854L42.56667363247519,61.90239034698065zM68.15066176569616,64.84642469191516L80.14024471340461,56.75354441097278L89.58697431604291,48.0623437389616zM16.088780362742757,92.43387761395387L20.364666778713186,91.08977248373563L43.2663315253456,80.03243823667854zM43.2663315253456,80.03243823667854L51.64751713993102,75.98586143773966L68.15066176569616,64.84642469191516z" style="fill:rgb(83,212,212)"/></svg>
