<?xml version="1.0" encoding="UTF-8"?>
<!-- Generated by jsxcad -->
<!DOCTYPE svg PUBLIC "-//W3C//DTD SVG 1.1 Tiny//EN" "http://www.w3.org/Graphics/SVG/1.1/DTD/svg11-tiny.dtd">
<svg baseProfile="tiny" height="144.53125mm" width="125.00000mm" viewBox="-0.00000 19.53125 125.00000 144.53125" version="1.1" stroke="black" stroke-width=".1" fill="none" xmlns="http://www.w3.org/2000/svg">
<path fill="#000000" stroke="#000000" d="M122.92980 83.29545 L123.32668 83.43261 L123.72304 83.57941 L124.11885 83.73543 L124.51405 83.90031 L124.90860 84.07375 L124.87672 84.88624 L124.46980 85.02824 L124.06290 85.16165 L123.65609 85.28618 L123.24944 85.40148 L122.84303 85.50712 L122.82997 85.72697 L122.79268 86.29248 L123.18227 86.44916 L123.57087 86.61544 L123.95845 86.79090 L124.34499 86.97518 L124.73045 87.16797 L124.65831 87.97788 L124.24485 88.09952 L123.83183 88.21258 L123.41934 88.31678 L123.00747 88.41177 L122.59633 88.49713 L122.56113 88.81647 L122.49489 89.37933 L122.87594 89.55577 L123.25550 89.74176 L123.63358 89.93685 L124.01016 90.14071 L124.38522 90.35301 L124.27166 91.15816 L123.85251 91.25844 L123.43423 91.35018 L123.01694 91.43310 L122.60075 91.50684 L122.18577 91.57101 L122.13122 91.90640 L122.03604 92.46510 L122.40748 92.66096 L122.77695 92.86627 L123.14446 93.08061 L123.51002 93.30361 L123.87364 93.53498 L123.71871 94.33319 L123.29494 94.41172 L122.87249 94.48177 L122.45148 94.54306 L122.03203 94.59524 L121.61429 94.63792 L121.55042 94.93393 L121.42690 95.48705 L121.78787 95.70159 L122.14639 95.92546 L122.50250 96.15825 L122.85623 96.39960 L123.20758 96.64919 L123.01217 97.43848 L122.58495 97.49531 L122.15948 97.54373 L121.73589 97.58348 L121.31433 97.61422 L120.89496 97.63555 L120.80865 97.95518 L120.65684 98.50121 L121.00631 98.73403 L121.35284 98.97604 L121.69651 99.22684 L122.03735 99.48606 L122.37540 99.75339 L122.13966 100.53158 L121.71008 100.56637 L121.28268 100.59285 L120.85761 100.61076 L120.43503 100.61977 L120.01512 100.61951 L119.93565 100.86373 L119.75662 101.40146 L120.09395 101.65152 L120.42790 101.91063 L120.75854 102.17837 L121.08595 102.45437 L121.41015 102.73834 L121.13563 103.50371 L120.70485 103.51688 L120.27666 103.52188 L119.85123 103.51842 L119.42872 103.50621 L119.00935 103.48487 L118.86697 103.85641 L118.65994 104.38399 L118.98367 104.65143 L119.30354 104.92772 L119.61966 105.21246 L119.93211 105.50528 L120.24095 105.80588 L119.92660 106.55578 L119.49572 106.54631 L119.06787 106.52879 L118.64320 106.50300 L118.22192 106.46861 L117.80425 106.42526 L117.70534 106.64839 L117.47220 107.16495 L117.78215 107.44825 L118.08781 107.74019 L118.38931 108.04037 L118.68673 108.34844 L118.98015 108.66412 L118.62871 109.39736 L118.19884 109.36635 L117.77239 109.32748 L117.34955 109.28048 L116.93052 109.22507 L116.51554 109.16090 L116.34512 109.49775 L116.08532 110.00145 L116.38007 110.30053 L116.67007 110.60803 L116.95549 110.92354 L117.23642 111.24671 L117.51297 111.57727 L117.12373 112.29117 L116.69607 112.23777 L116.27223 112.17669 L115.85242 112.10768 L115.43685 112.03048 L115.02578 111.94474 L114.93029 112.11188 L114.64606 112.60220 L114.92575 112.91540 L115.20030 113.23678 L115.46986 113.56593 L115.73458 113.90253 L115.99454 114.24628 L115.57069 114.94018 L115.14617 114.86583 L114.72585 114.78400 L114.30993 114.69445 L113.89866 114.59691 L113.49230 114.49107 L113.29565 114.79811 L112.98632 115.27299 L113.24935 115.60031 L113.50682 115.93553 L113.75891 116.27825 L114.00577 116.62815 L114.24751 116.98495 L113.78817 117.65588 L113.36808 117.55957 L112.95258 117.45599 L112.54188 117.34494 L112.13623 117.22616 L111.73593 117.09934 L111.52494 117.39386 L111.19135 117.85203 L111.43703 118.19258 L111.67673 118.54072 L111.91068 118.89607 L112.13903 119.25832 L112.36191 119.62719 L111.86833 120.27336 L111.45382 120.15535 L111.04426 120.03033 L110.63988 119.89810 L110.24095 119.75841 L109.84778 119.61096 L109.67440 119.82850 L109.31808 120.26922 L109.54623 120.62175 L109.76802 120.98156 L109.98370 121.34828 L110.19345 121.72161 L110.39740 122.10129 L109.87178 122.72167 L109.46377 122.58286 L109.06105 122.43729 L108.66388 122.28478 L108.27252 122.12510 L107.88730 121.95797 L107.72269 122.14443 L107.34475 122.56676 L107.55495 122.93027 L107.75846 123.30074 L107.95550 123.67780 L108.14629 124.06117 L108.33098 124.45057 L107.77496 125.04387 L107.37440 124.88480 L106.97948 124.71925 L106.59044 124.54704 L106.20757 124.36797 L105.83121 124.18176 L105.62911 124.38865 L105.23022 124.79125 L105.42172 125.16496 L105.60616 125.54528 L105.78382 125.93185 L105.95491 126.32440 L106.11961 126.72268 L105.53420 127.28700 L105.14223 127.10781 L104.75622 126.92244 L104.37642 126.73071 L104.00312 126.53244 L103.63669 126.32737 L103.33411 126.60664 L102.91454 126.98764 L103.08605 127.37093 L103.25017 127.76044 L103.40719 128.15585 L103.55733 128.55689 L103.70078 128.96330 L103.08641 129.49594 L102.70444 129.29632 L102.32875 129.09084 L101.95959 128.87934 L101.59728 128.66165 L101.24218 128.43754 L101.04827 128.59885 L100.61012 128.95834 L100.76220 129.34974 L100.90659 129.74700 L101.04359 130.14978 L101.17344 130.55784 L101.29634 130.97093 L100.65604 131.47211 L100.28456 131.25359 L99.91964 131.02953 L99.56155 130.79980 L99.21060 130.56422 L98.86718 130.32258 L98.67132 130.46957 L98.21575 130.80670 L98.34806 131.20522 L98.47241 131.60920 L98.58909 132.01833 L98.69837 132.43237 L98.80046 132.85109 L98.13590 133.31962 L97.77581 133.08280 L97.42255 132.84077 L97.07640 132.59342 L96.73767 132.34059 L96.40677 132.08208 L96.12347 132.27298 L95.65111 132.58615 L95.76268 132.99097 L95.86601 133.40083 L95.96143 133.81544 L96.04920 134.23456 L96.12954 134.65799 L95.44169 135.09160 L95.09430 134.83652 L94.75401 134.57658 L94.42108 134.31170 L94.09585 134.04172 L93.77872 133.76648 L93.46142 133.95716 L92.97339 134.24530 L93.06373 134.65538 L93.14558 135.07006 L93.21928 135.48908 L93.28510 135.91221 L93.34328 136.33925 L92.63378 136.73645 L92.30015 136.46362 L91.97385 136.18632 L91.65517 135.90445 L91.34444 135.61791 L91.04208 135.32653 L90.79778 135.45676 L90.29582 135.71988 L90.36532 136.13400 L90.42611 136.55228 L90.47854 136.97449 L90.52289 137.40040 L90.55942 137.82983 L89.83076 138.19067 L89.51134 137.90133 L89.19947 137.60790 L88.89543 137.31029 L88.59959 137.00841 L88.31233 136.70212 L87.99507 136.85094 L87.48017 137.08773 L87.52814 137.50489 L87.56720 137.92576 L87.59771 138.35011 L87.61997 138.77775 L87.63422 139.20850 L86.88786 139.53115 L86.58385 139.22566 L86.28758 138.91648 L85.99935 138.60354 L85.71952 138.28675 L85.44851 137.96601 L85.15525 138.08557 L84.62889 138.29568 L84.65545 138.71475 L84.67292 139.13707 L84.68166 139.56243 L84.68200 139.99065 L84.67418 140.42156 L83.91228 140.70558 L83.62430 140.38493 L83.34425 140.06099 L83.07243 139.73370 L82.80918 139.40300 L82.55494 139.06881 L82.35928 139.13732 L81.82319 139.32118 L81.82902 139.74105 L81.82561 140.16372 L81.81334 140.58899 L81.79252 141.01670 L81.76344 141.44670 L80.98844 141.69275 L80.71665 141.35827 L80.45294 141.02089 L80.19761 140.68058 L79.95101 140.33728 L79.71359 139.99094 L79.34124 140.10039 L78.79625 140.25593 L78.78009 140.67553 L78.75454 141.09744 L78.72001 141.52148 L78.67683 141.94752 L78.62526 142.37540 L77.83844 142.58052 L77.58454 142.23227 L77.33886 141.88154 L77.10170 141.52833 L76.87343 141.17259 L76.65446 140.81429 L76.38227 140.87928 L75.83011 141.00705 L75.79274 141.42530 L75.74589 141.84538 L75.68995 142.26713 L75.62528 142.69043 L75.55213 143.11516 L74.75594 143.28022 L74.51998 142.91957 L74.29236 142.55687 L74.07337 142.19210 L73.86338 141.82527 L73.66282 141.45635 L73.37199 141.51038 L72.81405 141.60991 L72.75546 142.02571 L72.68731 142.44286 L72.61000 142.86123 L72.52388 143.28069 L72.42923 143.70116 L71.62568 143.82552 L71.40837 143.45333 L71.19948 143.07952 L70.99932 142.70410 L70.80826 142.32707 L70.62672 141.94842 L70.32153 141.98916 L69.75924 142.06008 L69.67950 142.47235 L69.59014 142.88548 L69.49158 143.29935 L69.38416 143.71387 L69.26818 144.12896 L68.45933 144.21214 L68.26129 143.82935 L68.07176 143.44536 L67.89103 143.06021 L67.71946 142.67391 L67.55748 142.28650 L67.24253 142.31224 L66.67735 142.35429 L66.57661 142.76194 L66.46623 143.16995 L66.34661 143.57824 L66.21812 143.98672 L66.08104 144.39532 L65.26899 144.43699 L65.09081 144.04457 L64.92117 143.65138 L64.76039 143.25749 L64.60882 142.86292 L64.46689 142.46772 L64.14696 142.47742 L63.58037 142.49045 L63.45888 142.89240 L63.32772 143.29422 L63.18734 143.69584 L63.03808 144.09720 L62.88024 144.49824 L62.06713 144.49824 L61.90929 144.09720 L61.76003 143.69584 L61.61964 143.29422 L61.48849 142.89240 L61.36700 142.49045 L61.04700 142.48375 L60.48048 142.46772 L60.33855 142.86292 L60.18697 143.25749 L60.02619 143.65138 L59.85656 144.04457 L59.67838 144.43699 L58.86633 144.39532 L58.72925 143.98672 L58.60076 143.57824 L58.48114 143.16995 L58.37075 142.76194 L58.27002 142.35429 L57.95484 142.33150 L57.38989 142.28650 L57.22791 142.67391 L57.05634 143.06021 L56.87561 143.44536 L56.68608 143.82935 L56.48804 144.21214 L55.67919 144.12896 L55.56321 143.71387 L55.45579 143.29935 L55.35722 142.88548 L55.26786 142.47235 L55.18813 142.06008 L54.88257 142.02221 L54.32065 141.94842 L54.13911 142.32707 L53.94805 142.70410 L53.74789 143.07952 L53.53900 143.45333 L53.32168 143.82552 L52.51813 143.70116 L52.42349 143.28069 L52.33737 142.86123 L52.26006 142.44286 L52.19191 142.02571 L52.13332 141.60991 L51.84199 141.55861 L51.28454 141.45635 L51.08399 141.82527 L50.87400 142.19210 L50.65501 142.55687 L50.42739 142.91957 L50.19143 143.28022 L49.39524 143.11516 L49.32209 142.69043 L49.25741 142.26713 L49.20148 141.84538 L49.15463 141.42530 L49.11725 141.00705 L48.84446 140.94461 L48.29290 140.81429 L48.07394 141.17259 L47.84567 141.52833 L47.60851 141.88154 L47.36283 142.23227 L47.10893 142.58052 L46.32211 142.37540 L46.27054 141.94752 L46.22736 141.52148 L46.19283 141.09744 L46.16728 140.67553 L46.15112 140.25593 L45.77776 140.14997 L45.23378 139.99094 L44.99635 140.33728 L44.74976 140.68058 L44.49443 141.02089 L44.23072 141.35827 L43.95893 141.69275 L43.18393 141.44670 L43.15484 141.01670 L43.13403 140.58899 L43.12176 140.16372 L43.11834 139.74105 L43.12418 139.32118 L42.92789 139.25451 L42.39243 139.06881 L42.13819 139.40300 L41.87494 139.73370 L41.60312 140.06099 L41.32307 140.38493 L41.03509 140.70558 L40.27319 140.42156 L40.26537 139.99065 L40.26571 139.56243 L40.27445 139.13707 L40.29192 138.71475 L40.31847 138.29568 L40.02411 138.17888 L39.49886 137.96601 L39.22784 138.28675 L38.94801 138.60354 L38.65979 138.91648 L38.36352 139.22566 L38.05951 139.53115 L37.31315 139.20850 L37.32740 138.77775 L37.34966 138.35011 L37.38017 137.92576 L37.41923 137.50489 L37.46720 137.08773 L37.14856 136.94189 L36.63503 136.70212 L36.34778 137.00841 L36.05193 137.31029 L35.74790 137.60790 L35.43603 137.90133 L35.11661 138.19067 L34.38795 137.82983 L34.42448 137.40040 L34.46883 136.97449 L34.52126 136.55228 L34.58205 136.13400 L34.65155 135.71988 L34.40604 135.59194 L33.90529 135.32653 L33.60293 135.61791 L33.29220 135.90445 L32.97352 136.18632 L32.64722 136.46362 L32.31358 136.73645 L31.60409 136.33925 L31.66227 135.91221 L31.72809 135.48908 L31.80179 135.07006 L31.88364 134.65538 L31.97398 134.24530 L31.65490 134.05761 L31.16864 133.76648 L30.85152 134.04172 L30.52629 134.31170 L30.19336 134.57658 L29.85306 134.83652 L29.50568 135.09160 L28.81783 134.65799 L28.89817 134.23456 L28.98594 133.81544 L29.08135 133.40083 L29.18469 132.99097 L29.29626 132.58615 L29.01119 132.39792 L28.54060 132.08208 L28.20970 132.34059 L27.87097 132.59342 L27.52482 132.84077 L27.17156 133.08280 L26.81147 133.31962 L26.14691 132.85109 L26.24900 132.43237 L26.35828 132.01833 L26.47496 131.60920 L26.59931 131.20522 L26.73162 130.80670 L26.53439 130.66156 L26.08019 130.32258 L25.73676 130.56422 L25.38582 130.79980 L25.02773 131.02953 L24.66281 131.25359 L24.29133 131.47211 L23.65103 130.97093 L23.77393 130.55784 L23.90378 130.14978 L24.04078 129.74700 L24.18517 129.34974 L24.33724 128.95834 L24.14183 128.79885 L23.70519 128.43754 L23.35009 128.66165 L22.98777 128.87934 L22.61862 129.09084 L22.24292 129.29632 L21.86096 129.49594 L21.24659 128.96330 L21.39004 128.55689 L21.54018 128.15585 L21.69720 127.76044 L21.86132 127.37093 L22.03282 126.98764 L21.72764 126.71122 L21.31068 126.32737 L20.94424 126.53244 L20.57095 126.73071 L20.19115 126.92244 L19.80514 127.10781 L19.41317 127.28700 L18.82776 126.72268 L18.99245 126.32440 L19.16354 125.93185 L19.34121 125.54528 L19.52565 125.16496 L19.71714 124.79125 L19.51312 124.58627 L19.11616 124.18176 L18.73980 124.36797 L18.35693 124.54704 L17.96789 124.71925 L17.57297 124.88480 L17.17241 125.04387 L16.61639 124.45057 L16.80108 124.06117 L16.99187 123.67780 L17.18891 123.30074 L17.39242 122.93027 L17.60262 122.56676 L17.43627 122.38185 L17.06006 121.95797 L16.67485 122.12510 L16.28349 122.28478 L15.88632 122.43729 L15.48360 122.58286 L15.07559 122.72167 L14.54997 122.10129 L14.75392 121.72161 L14.96366 121.34828 L15.17934 120.98156 L15.40114 120.62175 L15.62929 120.26922 L15.45388 120.05332 L15.09959 119.61096 L14.70641 119.75841 L14.30748 119.89810 L13.90311 120.03033 L13.49355 120.15535 L13.07904 120.27336 L12.58545 119.62719 L12.80834 119.25832 L13.03669 118.89607 L13.27064 118.54072 L13.51034 118.19258 L13.75602 117.85203 L13.54227 117.55950 L13.21144 117.09934 L12.81113 117.22616 L12.40549 117.34494 L11.99479 117.45599 L11.57929 117.55957 L11.15920 117.65588 L10.69985 116.98495 L10.94160 116.62815 L11.18846 116.27825 L11.44055 115.93553 L11.69802 115.60031 L11.96105 115.27299 L11.76153 114.96781 L11.45506 114.49107 L11.04871 114.59691 L10.63744 114.69445 L10.22152 114.78400 L9.80120 114.86583 L9.37667 114.94018 L8.95282 114.24628 L9.21279 113.90253 L9.47751 113.56593 L9.74707 113.23678 L10.02161 112.91540 L10.30131 112.60220 L10.20425 112.43596 L9.92159 111.94474 L9.51052 112.03048 L9.09495 112.10768 L8.67514 112.17669 L8.25130 112.23777 L7.82364 112.29117 L7.43440 111.57727 L7.71095 111.24671 L7.99188 110.92354 L8.27729 110.60803 L8.56730 110.30053 L8.86204 110.00145 L8.68847 109.66621 L8.43183 109.16090 L8.01685 109.22507 L7.59782 109.28048 L7.17498 109.32748 L6.74853 109.36635 L6.31866 109.39736 L5.96722 108.66412 L6.26064 108.34844 L6.55806 108.04037 L6.85955 107.74019 L7.16521 107.44825 L7.47517 107.16495 L7.37417 106.94277 L7.14312 106.42526 L6.72545 106.46861 L6.30417 106.50300 L5.87950 106.52879 L5.45164 106.54631 L5.02077 106.55578 L4.70642 105.80588 L5.01526 105.50528 L5.32771 105.21246 L5.64383 104.92772 L5.96370 104.65143 L6.28743 104.38399 L6.14157 104.01380 L5.93801 103.48487 L5.51865 103.50621 L5.09614 103.51842 L4.67071 103.52188 L4.24252 103.51688 L3.81174 103.50371 L3.53722 102.73834 L3.86142 102.45437 L4.18883 102.17837 L4.51947 101.91063 L4.85342 101.65152 L5.19075 101.40146 L5.10900 101.15799 L4.93225 100.61951 L4.51234 100.61977 L4.08976 100.61076 L3.66469 100.59285 L3.23729 100.56637 L2.80771 100.53158 L2.57196 99.75339 L2.91002 99.48606 L3.25086 99.22684 L3.59453 98.97604 L3.94106 98.73403 L4.29052 98.50121 L4.20122 98.18241 L4.05241 97.63555 L3.63304 97.61422 L3.21148 97.58348 L2.78789 97.54373 L2.36242 97.49531 L1.93520 97.43848 L1.73979 96.64919 L2.09114 96.39960 L2.44487 96.15825 L2.80098 95.92546 L3.15950 95.70159 L3.52047 95.48705 L3.45383 95.19165 L3.33307 94.63792 L2.91534 94.59524 L2.49589 94.54306 L2.07488 94.48177 L1.65243 94.41172 L1.22866 94.33319 L1.07373 93.53498 L1.43734 93.30361 L1.80291 93.08061 L2.17042 92.86627 L2.53989 92.66096 L2.91133 92.46510 L2.85363 92.13023 L2.76160 91.57101 L2.34662 91.50684 L1.93042 91.43310 L1.51313 91.35018 L1.09486 91.25844 L0.67571 91.15816 L0.56214 90.35301 L0.93721 90.14071 L1.31379 89.93685 L1.69187 89.74176 L2.07143 89.55577 L2.45248 89.37933 L2.41428 89.06033 L2.35104 88.49713 L1.93990 88.41177 L1.52803 88.31678 L1.11554 88.21258 L0.70252 88.09952 L0.28906 87.97788 L0.21692 87.16797 L0.60238 86.97518 L0.98891 86.79090 L1.37650 86.61544 L1.76510 86.44916 L2.15469 86.29248 L2.13957 86.07277 L2.10434 85.50712 L1.69793 85.40148 L1.29128 85.28618 L0.88447 85.16165 L0.47756 85.02824 L0.07064 84.88624 L0.03877 84.07375 L0.43331 83.90031 L0.82852 83.73543 L1.22432 83.57941 L1.62069 83.43261 L2.01757 83.29545 L2.01026 82.87638 L2.00500 82.30966 L1.60475 82.18267 L1.20476 82.04603 L0.80510 81.90016 L0.40582 81.74542 L0.00698 81.58210 L0.01812 80.76906 L0.42129 80.61673 L0.82465 80.47298 L1.22816 80.33811 L1.63174 80.21248 L2.03531 80.09650 L2.04534 79.80535 L2.06885 79.23910 L1.67557 79.09195 L1.28304 78.93517 L0.89130 78.76920 L0.50039 78.59438 L0.11036 78.41102 L0.16276 77.59960 L0.57314 77.46793 L0.98329 77.34485 L1.39312 77.23064 L1.80256 77.12566 L2.21150 77.03033 L2.23037 76.80799 L2.28197 76.24360 L1.89647 76.07711 L1.51221 75.90104 L1.12919 75.71582 L0.74745 75.52181 L0.36700 75.31931 L0.45962 74.51149 L0.87603 74.40036 L1.29179 74.29779 L1.70678 74.20407 L2.12093 74.11955 L2.53410 74.04463 L2.58429 73.67657 L2.66523 73.11563 L2.28893 72.92928 L1.91436 72.73343 L1.54152 72.52851 L1.17040 72.31488 L0.80101 72.09284 L0.93560 71.29094 L1.35723 71.20165 L1.77776 71.12088 L2.19708 71.04891 L2.61506 70.98608 L3.03158 70.93279 L3.07964 70.67842 L3.18865 70.12226 L2.82219 69.91724 L2.45793 69.70282 L2.09585 69.47943 L1.73593 69.24742 L1.37817 69.00710 L1.55287 68.21297 L1.97846 68.14499 L2.40251 68.08544 L2.82492 68.03463 L3.24553 67.99287 L3.66420 67.96058 L3.75147 67.60069 L3.88929 67.05096 L3.53401 66.82714 L3.18141 66.59404 L2.83146 66.35209 L2.48411 66.10166 L2.13935 65.84303 L2.35517 65.05908 L2.78372 65.01335 L3.21030 64.97597 L3.63478 64.94723 L4.05699 64.92743 L4.47677 64.91698 L4.56665 64.61530 L4.73242 64.07334 L4.38905 63.83164 L4.04884 63.58080 L3.71173 63.32127 L3.37765 63.05339 L3.04657 62.77747 L3.30221 62.00559 L3.73254 61.98184 L4.16048 61.96633 L4.58587 61.95934 L5.00854 61.96117 L5.42831 61.97221 L5.52712 61.69339 L5.72023 61.16056 L5.38960 60.90171 L5.06258 60.63390 L4.73910 60.35756 L4.41907 60.07304 L4.10245 59.78064 L4.39701 59.02276 L4.82799 59.02092 L5.25616 59.02720 L5.68136 59.04184 L6.10340 59.06516 L6.52206 59.09753 L6.64934 58.78942 L6.86962 58.26724 L6.55275 57.99171 L6.23995 57.70742 L5.93112 57.41480 L5.62616 57.11419 L5.32501 56.80588 L5.65819 56.06416 L6.08869 56.08451 L6.51597 56.11281 L6.93985 56.14932 L7.36013 56.19433 L7.77657 56.24821 L7.88862 56.01182 L8.13488 55.50138 L7.83226 55.21027 L7.53415 54.91061 L7.24042 54.60283 L6.95097 54.28726 L6.66570 53.96420 L7.03575 53.24017 L7.46469 53.28214 L7.89000 53.33190 L8.31151 53.38968 L8.72899 53.45576 L9.14220 53.53051 L9.30757 53.22319 L9.57991 52.72616 L9.29275 52.41978 L9.01054 52.10511 L8.73313 51.78255 L8.46038 51.45243 L8.19221 51.11505 L8.59922 50.41113 L9.02541 50.47523 L9.44758 50.54692 L9.86553 50.62642 L10.27904 50.71401 L10.68782 50.81004 L10.82398 50.58529 L11.12097 50.10260 L10.84959 49.78216 L10.58357 49.45370 L10.32273 49.11759 L10.06693 48.77417 L9.81607 48.42372 L10.25797 47.74117 L10.68040 47.82662 L11.09843 47.91946 L11.51186 48.01988 L11.92043 48.12817 L12.32387 48.24463 L12.50234 47.98122 L12.82367 47.51436 L12.56905 47.18045 L12.32020 46.83879 L12.07692 46.48976 L11.83905 46.13369 L11.60646 45.77086 L12.08274 45.11183 L12.50024 45.21881 L12.91297 45.33293 L13.32071 45.45440 L13.72320 45.58347 L14.12014 45.72044 L14.26490 45.52847 L14.60914 45.07824 L14.37151 44.73203 L14.14004 44.37837 L13.91449 44.01763 L13.69469 43.65013 L13.48051 43.27613 L13.98911 42.64171 L14.40074 42.76940 L14.80725 42.90399 L15.20842 43.04567 L15.60396 43.19467 L15.99357 43.35129 L16.23521 43.06276 L16.60247 42.63111 L16.38323 42.27297 L16.17052 41.90771 L15.96410 41.53570 L15.76378 41.15723 L15.56941 40.77256 L16.11041 40.16554 L16.51482 40.31454 L16.91376 40.47016 L17.30699 40.63257 L17.69422 40.80201 L18.07512 40.97875 L18.26847 40.77063 L18.65712 40.35813 L18.45631 39.98935 L18.26237 39.61379 L18.07506 39.23179 L17.89417 38.84366 L17.71953 38.44965 L18.29059 37.87081 L18.68693 38.04010 L19.07748 38.21573 L19.46197 38.39785 L19.84012 38.58669 L20.21159 38.78249 L20.40240 38.59685 L20.81133 38.20445 L20.62935 37.82603 L20.45457 37.44117 L20.28673 37.05023 L20.12562 36.65348 L19.97104 36.25117 L20.57052 35.70183 L20.95784 35.89086 L21.33904 36.08593 L21.71388 36.28719 L22.08204 36.49483 L22.44317 36.70909 L22.73908 36.44945 L23.16803 36.07904 L23.00615 35.69159 L22.85181 35.29810 L22.70471 34.89889 L22.56463 34.49423 L22.43138 34.08436 L23.05885 33.56723 L23.43572 33.77632 L23.80616 33.99112 L24.16992 34.21177 L24.52668 34.43844 L24.87608 34.67135 L25.16128 34.44633 L25.60890 34.09872 L25.46737 33.70338 L25.33368 33.30240 L25.20753 32.89608 L25.08867 32.48469 L24.97689 32.06846 L25.63039 31.58462 L25.99588 31.81302 L26.35466 32.04678 L26.70646 32.28603 L27.05097 32.53093 L27.38779 32.78169 L27.52890 32.68146 L27.99296 32.35611 L27.87090 31.95433 L27.75694 31.54730 L27.65078 31.13531 L27.55214 30.71861 L27.46082 30.29742 L28.13716 29.84607 L28.49106 30.09203 L28.83800 30.34303 L29.17771 30.59917 L29.50984 30.86060 L29.83402 31.12750 L30.12771 30.94037 L30.60798 30.63946 L30.50686 30.23190 L30.41410 29.81952 L30.32938 29.40260 L30.25243 28.98135 L30.18301 28.55600 L30.88179 28.14023 L31.22250 28.40417 L31.55600 28.67277 L31.88200 28.94613 L32.20017 29.22439 L32.51011 29.50769 L32.84358 29.31885 L33.33892 29.04347 L33.25925 28.63118 L33.18819 28.21452 L33.12539 27.79373 L33.07056 27.36904 L33.02348 26.94063 L33.74305 26.56197 L34.06949 26.84337 L34.38848 27.12904 L34.69975 27.41908 L35.00293 27.71359 L35.29763 28.01272 L35.55140 27.88579 L36.06005 27.63585 L36.00137 27.22006 L35.95150 26.80033 L35.91009 26.37690 L35.87685 25.94998 L35.85152 25.51974 L36.58934 25.17801 L36.90111 25.47557 L37.20523 25.77704 L37.50141 26.08247 L37.78929 26.39196 L38.06846 26.70563 L38.36761 26.57463 L38.88842 26.35114 L38.85117 25.93288 L38.82292 25.51114 L38.80331 25.08615 L38.79204 24.65808 L38.78884 24.22711 L39.54324 23.92372 L39.83931 24.23691 L40.12755 24.55359 L40.40765 24.87383 L40.67925 25.19769 L40.94195 25.52528 L41.13244 25.45306 L41.66365 25.25553 L41.64707 24.83595 L41.63966 24.41333 L41.64104 23.98789 L41.65090 23.55978 L41.66896 23.12918 L42.43741 22.86337 L42.71767 23.19078 L42.98994 23.52130 L43.25390 23.85496 L43.50920 24.19183 L43.75542 24.53198 L44.14920 24.40527 L44.69010 24.23606 L44.69569 23.81619 L44.71061 23.39377 L44.73445 22.96899 L44.76689 22.54201 L44.80766 22.11295 L45.58907 21.88809 L45.85166 22.22984 L46.10609 22.57426 L46.35207 22.92140 L46.58923 23.27128 L46.81715 23.62395 L47.07853 23.55451 L47.62727 23.41279 L47.65403 22.99373 L47.69023 22.57261 L47.73546 22.14957 L47.78939 21.72476 L47.85175 21.29831 L48.64350 21.11314 L48.88852 21.46769 L49.12527 21.82452 L49.35342 22.18361 L49.57264 22.54500 L49.78248 22.90872 L50.11828 22.83764 L50.67360 22.72444 L50.72197 22.30732 L50.77986 21.88862 L50.84687 21.46849 L50.92266 21.04703 L51.00696 20.62437 L51.80721 20.48032 L52.03360 20.84706 L52.25161 21.21562 L52.46092 21.58602 L52.66118 21.95825 L52.85197 22.33232 L53.12876 22.28837 L53.68910 22.20341 L53.75851 21.78927 L53.83751 21.37404 L53.92569 20.95783 L54.02270 20.54075 L54.12827 20.12289 L54.93479 20.01951 L55.14234 20.39723 L55.34142 20.77636 L55.53172 21.15687 L55.71290 21.53875 L55.88451 21.92199 L56.16251 21.89217 L56.72643 21.83566 L56.81669 21.42557 L56.91659 21.01486 L57.02571 20.60364 L57.14370 20.19201 L57.27027 19.78003 L58.08099 19.71757 L58.26916 20.10530 L58.44881 20.49401 L58.61963 20.88366 L58.78125 21.27422 L58.93326 21.66565 L59.21057 21.65003 L59.77663 21.62210 L59.88750 21.21709 L60.00804 20.81196 L60.13780 20.40678 L60.27645 20.00164 L60.42368 19.59658 L61.23652 19.57519 L61.40485 19.97194 L61.56462 20.36923 L61.71552 20.76702 L61.85720 21.16525 L61.98923 21.56386 L62.39140 21.56198 L62.95814 21.56386 L63.09017 21.16525 L63.23184 20.76702 L63.38275 20.36923 L63.54251 19.97194 L63.71085 19.57519 L64.52368 19.59658 L64.67092 20.00164 L64.80957 20.40678 L64.93933 20.81196 L65.05987 21.21709 L65.17074 21.62210 L65.44818 21.63512 L66.01411 21.66565 L66.16612 21.27422 L66.32774 20.88366 L66.49856 20.49401 L66.67821 20.10530 L66.86638 19.71757 L67.67710 19.78003 L67.80367 20.19201 L67.92166 20.60364 L68.03078 21.01486 L68.13068 21.42557 L68.22094 21.83566 L68.49920 21.86288 L69.06286 21.92199 L69.23447 21.53875 L69.41565 21.15687 L69.60595 20.77636 L69.80503 20.39723 L70.01258 20.01951 L70.81909 20.12289 L70.92466 20.54075 L71.02168 20.95783 L71.10986 21.37404 L71.18886 21.78927 L71.25827 22.20341 L71.53546 22.24476 L72.09540 22.33232 L72.28619 21.95825 L72.48645 21.58602 L72.69576 21.21562 L72.91376 20.84706 L73.14016 20.48032 L73.94041 20.62437 L74.02470 21.04703 L74.10050 21.46849 L74.16751 21.88862 L74.22540 22.30732 L74.27376 22.72444 L74.61022 22.79237 L75.16489 22.90872 L75.37473 22.54500 L75.59395 22.18361 L75.82210 21.82452 L76.05885 21.46769 L76.30387 21.11314 L77.09562 21.29831 L77.15798 21.72476 L77.21191 22.14957 L77.25714 22.57261 L77.29334 22.99373 L77.32010 23.41279 L77.58212 23.47978 L78.13022 23.62395 L78.35814 23.27128 L78.59530 22.92140 L78.84127 22.57426 L79.09571 22.22984 L79.35830 21.88809 L80.13971 22.11295 L80.18048 22.54201 L80.21292 22.96899 L80.23676 23.39377 L80.25168 23.81619 L80.25727 24.23606 L80.65223 24.35907 L81.19195 24.53198 L81.43817 24.19183 L81.69347 23.85496 L81.95743 23.52130 L82.22969 23.19078 L82.50996 22.86337 L83.27840 23.12918 L83.29647 23.55978 L83.30633 23.98789 L83.30771 24.41333 L83.30030 24.83595 L83.28372 25.25553 L83.47488 25.32596 L84.00542 25.52528 L84.26811 25.19769 L84.53972 24.87383 L84.81982 24.55359 L85.10805 24.23691 L85.40413 23.92372 L86.15853 24.22711 L86.15533 24.65808 L86.14406 25.08615 L86.12445 25.51114 L86.09620 25.93288 L86.05895 26.35114 L86.35931 26.47932 L86.87891 26.70563 L87.15808 26.39196 L87.44596 26.08247 L87.74214 25.77704 L88.04626 25.47557 L88.35803 25.17801 L89.09584 25.51974 L89.07052 25.94998 L89.03728 26.37690 L88.99587 26.80033 L88.94600 27.22006 L88.88732 27.63585 L89.14226 27.76038 L89.64973 28.01272 L89.94444 27.71359 L90.24762 27.41908 L90.55888 27.12904 L90.87788 26.84337 L91.20432 26.56197 L91.92389 26.94063 L91.87680 27.36904 L91.82198 27.79373 L91.75918 28.21452 L91.68812 28.63118 L91.60845 29.04347 L91.94367 29.22917 L92.43726 29.50769 L92.74720 29.22439 L93.06537 28.94613 L93.39137 28.67277 L93.72487 28.40417 L94.06558 28.14023 L94.76436 28.55600 L94.69494 28.98135 L94.61798 29.40260 L94.53327 29.81952 L94.44051 30.23190 L94.33939 30.63946 L94.63483 30.82382 L95.11335 31.12750 L95.43753 30.86060 L95.76966 30.59917 L96.10936 30.34303 L96.45631 30.09203 L96.81021 29.84607 L97.48655 30.29742 L97.39523 30.71861 L97.29659 31.13531 L97.19043 31.54730 L97.07647 31.95433 L96.95441 32.35611 L97.09646 32.45501 L97.55958 32.78169 L97.89640 32.53093 L98.24090 32.28603 L98.59271 32.04678 L98.95149 31.81302 L99.31698 31.58462 L99.97048 32.06846 L99.85870 32.48469 L99.73984 32.89608 L99.61369 33.30240 L99.48000 33.70338 L99.33847 34.09872 L99.62577 34.32106 L100.07129 34.67135 L100.42069 34.43844 L100.77745 34.21177 L101.14121 33.99112 L101.51165 33.77632 L101.88852 33.56723 L102.51599 34.08436 L102.38274 34.49423 L102.24266 34.89889 L102.09556 35.29810 L101.94122 35.69159 L101.77934 36.07904 L102.07766 36.33590 L102.50419 36.70909 L102.86533 36.49483 L103.23349 36.28719 L103.60833 36.08593 L103.98953 35.89086 L104.37684 35.70183 L104.97633 36.25117 L104.82175 36.65348 L104.66064 37.05023 L104.49280 37.44117 L104.31802 37.82603 L104.13604 38.20445 L104.32858 38.38830 L104.73578 38.78249 L105.10725 38.58669 L105.48540 38.39785 L105.86989 38.21573 L106.26044 38.04010 L106.65678 37.87081 L107.22784 38.44965 L107.05320 38.84366 L106.87231 39.23179 L106.68500 39.61379 L106.49106 39.98935 L106.29025 40.35813 L106.48554 40.56444 L106.87224 40.97875 L107.25315 40.80201 L107.64038 40.63257 L108.03361 40.47016 L108.43255 40.31454 L108.83696 40.16554 L109.37796 40.77256 L109.18359 41.15723 L108.98327 41.53570 L108.77685 41.90771 L108.56414 42.27297 L108.34490 42.63111 L108.58923 42.91736 L108.95379 43.35129 L109.34340 43.19467 L109.73895 43.04567 L110.14012 42.90399 L110.54663 42.76940 L110.95826 42.64171 L111.46686 43.27613 L111.25268 43.65013 L111.03288 44.01763 L110.80733 44.37837 L110.57585 44.73203 L110.33823 45.07824 L110.48479 45.26885 L110.82723 45.72044 L111.22417 45.58347 L111.62666 45.45440 L112.03440 45.33293 L112.44713 45.21881 L112.86463 45.11183 L113.34091 45.77086 L113.10832 46.13369 L112.87045 46.48976 L112.62717 46.83879 L112.37832 47.18045 L112.12370 47.51436 L112.30464 47.77609 L112.62350 48.24463 L113.02694 48.12817 L113.43551 48.01988 L113.84894 47.91946 L114.26697 47.82662 L114.68940 47.74117 L115.13130 48.42372 L114.88043 48.77417 L114.62464 49.11759 L114.36380 49.45370 L114.09778 49.78216 L113.82640 50.10260 L113.96466 50.32605 L114.25955 50.81004 L114.66833 50.71401 L115.08184 50.62642 L115.49979 50.54692 L115.92196 50.47523 L116.34815 50.41113 L116.75516 51.11505 L116.48699 51.45243 L116.21424 51.78255 L115.93682 52.10511 L115.65462 52.41978 L115.36746 52.72616 L115.53571 53.03192 L115.80517 53.53051 L116.21838 53.45576 L116.63586 53.38968 L117.05737 53.33190 L117.48268 53.28214 L117.91162 53.24017 L118.28167 53.96420 L117.99640 54.28726 L117.70694 54.60283 L117.41322 54.91061 L117.11511 55.21027 L116.81249 55.50138 L116.92675 55.73670 L117.17080 56.24821 L117.58724 56.19433 L118.00752 56.14932 L118.43140 56.11281 L118.85868 56.08451 L119.28918 56.06416 L119.62236 56.80588 L119.32121 57.11419 L119.01625 57.41480 L118.70742 57.70742 L118.39462 57.99171 L118.07774 58.26724 L118.20791 58.57414 L118.42531 59.09753 L118.84397 59.06516 L119.26601 59.04184 L119.69120 59.02720 L120.11937 59.02092 L120.55035 59.02276 L120.84492 59.78064 L120.52830 60.07304 L120.20827 60.35756 L119.88478 60.63390 L119.55777 60.90171 L119.22714 61.16056 L119.32855 61.43845 L119.51906 61.97221 L119.93883 61.96117 L120.36150 61.95934 L120.78689 61.96633 L121.21483 61.98184 L121.64516 62.00559 L121.90080 62.77747 L121.56972 63.05339 L121.23564 63.32127 L120.89853 63.58080 L120.55832 63.83164 L120.21495 64.07334 L120.30765 64.37417 L120.47059 64.91698 L120.89038 64.92743 L121.31259 64.94723 L121.73707 64.97597 L122.16365 65.01335 L122.59220 65.05908 L122.80802 65.84303 L122.46326 66.10166 L122.11591 66.35209 L121.76596 66.59404 L121.41336 66.82714 L121.05807 67.05096 L121.14871 67.41001 L121.28317 67.96058 L121.70184 67.99287 L122.12245 68.03463 L122.54486 68.08544 L122.96891 68.14499 L123.39450 68.21297 L123.56920 69.00710 L123.21144 69.24742 L122.85152 69.47943 L122.48944 69.70282 L122.12518 69.91724 L121.75872 70.12226 L121.80916 70.37617 L121.91579 70.93279 L122.33231 70.98608 L122.75029 71.04891 L123.16961 71.12088 L123.59014 71.20165 L124.01177 71.29094 L124.14635 72.09284 L123.77697 72.31488 L123.40585 72.52851 L123.03301 72.73343 L122.65844 72.92928 L122.28214 73.11563 L122.33578 73.48321 L122.41327 74.04463 L122.82644 74.11955 L123.24059 74.20407 L123.65558 74.29779 L124.07133 74.40036 L124.48774 74.51149 L124.58037 75.31931 L124.19992 75.52181 L123.81817 75.71582 L123.43516 75.90104 L123.05090 76.07711 L122.66540 76.24360 L122.68635 76.46575 L122.73587 77.03033 L123.14481 77.12566 L123.55425 77.23064 L123.96408 77.34485 L124.37423 77.46793 L124.78461 77.59960 L124.83701 78.41102 L124.44698 78.59438 L124.05607 78.76920 L123.66433 78.93517 L123.27180 79.09195 L122.87852 79.23910 L122.89127 79.53014 L122.91205 80.09650 L123.31563 80.21248 L123.71921 80.33811 L124.12271 80.47298 L124.52608 80.61673 L124.92925 80.76906 L124.94038 81.58210 L124.54154 81.74542 L124.14227 81.90016 L123.74261 82.04603 L123.34262 82.18267 L122.94237 82.30966 L122.93899 82.72878 z"/>
<path stroke="#000000" d="M 0.00000 19.53125 L 125.00000 19.53125 L 125.00000 144.53125 L 0.00000 144.53125 z"/>
<path stroke="#000000" d="M 3.34821 161.83036 L 4.46429 162.38839 L 6.13839 164.06250 L 6.13839 152.34375"/>
<path stroke="#000000" d="M 13.39286 161.27232 L 13.39286 161.83036 L 13.95089 162.94643 L 14.50893 163.50446 L 15.62500 164.06250 L 17.85714 164.06250 L 18.97321 163.50446 L 19.53125 162.94643 L 20.08929 161.83036 L 20.08929 160.71429 L 19.53125 159.59821 L 18.41518 157.92411 L 12.83482 152.34375 L 20.64732 152.34375"/>
<path stroke="#000000" d="M 29.57589 164.06250 L 23.99554 156.25000 L 32.36607 156.25000 M 29.57589 164.06250 L 29.57589 152.34375"/>
<path stroke="#000000" d="M 36.27232 153.45982 L 35.71429 152.90179 L 36.27232 152.34375 L 36.83036 152.90179 z"/>
<path stroke="#000000" d="M 47.99107 160.15625 L 47.43304 158.48214 L 46.31696 157.36607 L 44.64286 156.80804 L 44.08482 156.80804 L 42.41071 157.36607 L 41.29464 158.48214 L 40.73661 160.15625 L 40.73661 160.71429 L 41.29464 162.38839 L 42.41071 163.50446 L 44.08482 164.06250 L 44.64286 164.06250 L 46.31696 163.50446 L 47.43304 162.38839 L 47.99107 160.15625 L 47.99107 157.36607 L 47.43304 154.57589 L 46.31696 152.90179 L 44.64286 152.34375 L 43.52679 152.34375 L 41.85268 152.90179 L 41.29464 154.01786"/>
<path stroke="#000000" d="M 57.47768 164.06250 L 51.89732 156.25000 L 60.26786 156.25000 M 57.47768 164.06250 L 57.47768 152.34375"/>
<path stroke="#000000" d=""/>
<path stroke="#000000" d="M 71.98661 160.15625 L 78.12500 152.34375 M 78.12500 160.15625 L 71.98661 152.34375"/>
<path stroke="#000000" d=""/>
<path stroke="#000000" d="M 92.07589 161.83036 L 93.19196 162.38839 L 94.86607 164.06250 L 94.86607 152.34375"/>
<path stroke="#000000" d="M 102.12054 161.27232 L 102.12054 161.83036 L 102.67857 162.94643 L 103.23661 163.50446 L 104.35268 164.06250 L 106.58482 164.06250 L 107.70089 163.50446 L 108.25893 162.94643 L 108.81696 161.83036 L 108.81696 160.71429 L 108.25893 159.59821 L 107.14286 157.92411 L 101.56250 152.34375 L 109.37500 152.34375"/>
<path stroke="#000000" d="M 119.41964 164.06250 L 113.83929 164.06250 L 113.28125 159.04018 L 113.83929 159.59821 L 115.51339 160.15625 L 117.18750 160.15625 L 118.86161 159.59821 L 119.97768 158.48214 L 120.53571 156.80804 L 120.53571 155.69196 L 119.97768 154.01786 L 118.86161 152.90179 L 117.18750 152.34375 L 115.51339 152.34375 L 113.83929 152.90179 L 113.28125 153.45982 L 112.72321 154.57589"/>
</svg>