<?xml version="1.0" encoding="UTF-8"?>
<!-- Generated by jsxcad -->
<!DOCTYPE svg PUBLIC "-//W3C//DTD SVG 1.1 Tiny//EN" "http://www.w3.org/Graphics/SVG/1.1/DTD/svg11-tiny.dtd">
<svg baseProfile="tiny" height="144.53125mm" width="125.00000mm" viewBox="-0.00000 19.53125 125.00000 144.53125" version="1.1" stroke="black" stroke-width=".1" fill="none" xmlns="http://www.w3.org/2000/svg">
<path fill="#000000" stroke="#000000" d="M122.95611 83.29545 L123.35299 83.43261 L123.74936 83.57941 L124.14517 83.73543 L124.54037 83.90031 L124.93491 84.07375 L124.90304 84.88624 L124.49612 85.02824 L124.08922 85.16165 L123.68240 85.28618 L123.27575 85.40148 L122.86935 85.50712 L122.85629 85.72697 L122.81900 86.29248 L123.20859 86.44916 L123.59719 86.61544 L123.98477 86.79090 L124.37131 86.97518 L124.75676 87.16797 L124.68463 87.97788 L124.27117 88.09952 L123.85815 88.21258 L123.44566 88.31678 L123.03379 88.41177 L122.62264 88.49713 L122.58744 88.81647 L122.52121 89.37933 L122.90225 89.55577 L123.28182 89.74176 L123.65989 89.93685 L124.03647 90.14071 L124.41154 90.35301 L124.29798 91.15816 L123.87882 91.25844 L123.46055 91.35018 L123.04326 91.43310 L122.62706 91.50684 L122.21208 91.57101 L122.15753 91.90640 L122.06236 92.46510 L122.43380 92.66096 L122.80326 92.86627 L123.17077 93.08061 L123.53634 93.30361 L123.89996 93.53498 L123.74502 94.33319 L123.32125 94.41172 L122.89880 94.48177 L122.47779 94.54306 L122.05835 94.59524 L121.64061 94.63792 L121.57673 94.93393 L121.45321 95.48705 L121.81418 95.70159 L122.17271 95.92546 L122.52882 96.15825 L122.88254 96.39960 L123.23390 96.64919 L123.03848 97.43848 L122.61126 97.49531 L122.18579 97.54373 L121.76221 97.58348 L121.34065 97.61422 L120.92128 97.63555 L120.83497 97.95518 L120.68316 98.50121 L121.03262 98.73403 L121.37916 98.97604 L121.72282 99.22684 L122.06367 99.48606 L122.40172 99.75339 L122.16597 100.53158 L121.73639 100.56637 L121.30900 100.59285 L120.88393 100.61076 L120.46134 100.61977 L120.04143 100.61951 L119.96196 100.86373 L119.78294 101.40146 L120.12027 101.65152 L120.45422 101.91063 L120.78486 102.17837 L121.11226 102.45437 L121.43647 102.73834 L121.16195 103.50371 L120.73116 103.51688 L120.30298 103.52188 L119.87754 103.51842 L119.45504 103.50621 L119.03567 103.48487 L118.89328 103.85641 L118.68625 104.38399 L119.00998 104.65143 L119.32986 104.92772 L119.64598 105.21246 L119.95843 105.50528 L120.26727 105.80588 L119.95292 106.55578 L119.52204 106.54631 L119.09418 106.52879 L118.66952 106.50300 L118.24824 106.46861 L117.83057 106.42526 L117.73166 106.64839 L117.49852 107.16495 L117.80847 107.44825 L118.11413 107.74019 L118.41562 108.04037 L118.71304 108.34844 L119.00647 108.66412 L118.65502 109.39736 L118.22516 109.36635 L117.79871 109.32748 L117.37586 109.28048 L116.95683 109.22507 L116.54185 109.16090 L116.37143 109.49775 L116.11164 110.00145 L116.40639 110.30053 L116.69639 110.60803 L116.98180 110.92354 L117.26274 111.24671 L117.53929 111.57727 L117.15005 112.29117 L116.72238 112.23777 L116.29855 112.17669 L115.87873 112.10768 L115.46316 112.03048 L115.05210 111.94474 L114.95661 112.11188 L114.67238 112.60220 L114.95207 112.91540 L115.22661 113.23678 L115.49618 113.56593 L115.76089 113.90253 L116.02086 114.24628 L115.59701 114.94018 L115.17249 114.86583 L114.75217 114.78400 L114.33625 114.69445 L113.92497 114.59691 L113.51862 114.49107 L113.32197 114.79811 L113.01264 115.27299 L113.27567 115.60031 L113.53313 115.93553 L113.78522 116.27825 L114.03208 116.62815 L114.27383 116.98495 L113.81448 117.65588 L113.39440 117.55957 L112.97890 117.45599 L112.56820 117.34494 L112.16255 117.22616 L111.76225 117.09934 L111.55125 117.39386 L111.21767 117.85203 L111.46334 118.19258 L111.70305 118.54072 L111.93699 118.89607 L112.16534 119.25832 L112.38823 119.62719 L111.89465 120.27336 L111.48014 120.15535 L111.07058 120.03033 L110.66620 119.89810 L110.26727 119.75841 L109.87410 119.61096 L109.70072 119.82850 L109.34440 120.26922 L109.57254 120.62175 L109.79434 120.98156 L110.01002 121.34828 L110.21976 121.72161 L110.42372 122.10129 L109.89810 122.72167 L109.49008 122.58286 L109.08737 122.43729 L108.69019 122.28478 L108.29884 122.12510 L107.91362 121.95797 L107.74900 122.14443 L107.37106 122.56676 L107.58127 122.93027 L107.78477 123.30074 L107.98182 123.67780 L108.17261 124.06117 L108.35729 124.45057 L107.80127 125.04387 L107.40072 124.88480 L107.00580 124.71925 L106.61676 124.54704 L106.23389 124.36797 L105.85752 124.18176 L105.65542 124.38865 L105.25654 124.79125 L105.44803 125.16496 L105.63248 125.54528 L105.81014 125.93185 L105.98123 126.32440 L106.14592 126.72268 L105.56051 127.28700 L105.16855 127.10781 L104.78253 126.92244 L104.40273 126.73071 L104.02944 126.53244 L103.66301 126.32737 L103.36043 126.60664 L102.94086 126.98764 L103.11237 127.37093 L103.27649 127.76044 L103.43351 128.15585 L103.58365 128.55689 L103.72709 128.96330 L103.11273 129.49594 L102.73076 129.29632 L102.35507 129.09084 L101.98591 128.87934 L101.62360 128.66165 L101.26850 128.43754 L101.07458 128.59885 L100.63644 128.95834 L100.78852 129.34974 L100.93291 129.74700 L101.06991 130.14978 L101.19976 130.55784 L101.32265 130.97093 L100.68236 131.47211 L100.31088 131.25359 L99.94595 131.02953 L99.58786 130.79980 L99.23692 130.56422 L98.89350 130.32258 L98.69763 130.46957 L98.24206 130.80670 L98.37438 131.20522 L98.49872 131.60920 L98.61541 132.01833 L98.72469 132.43237 L98.82677 132.85109 L98.16222 133.31962 L97.80213 133.08280 L97.44887 132.84077 L97.10271 132.59342 L96.76399 132.34059 L96.43308 132.08208 L96.14979 132.27298 L95.67743 132.58615 L95.78900 132.99097 L95.89233 133.40083 L95.98775 133.81544 L96.07552 134.23456 L96.15586 134.65799 L95.46801 135.09160 L95.12062 134.83652 L94.78032 134.57658 L94.44739 134.31170 L94.12217 134.04172 L93.80504 133.76648 L93.48774 133.95716 L92.99971 134.24530 L93.09005 134.65538 L93.17190 135.07006 L93.24559 135.48908 L93.31142 135.91221 L93.36960 136.33925 L92.66010 136.73645 L92.32647 136.46362 L92.00017 136.18632 L91.68148 135.90445 L91.37076 135.61791 L91.06840 135.32653 L90.82410 135.45676 L90.32213 135.71988 L90.39164 136.13400 L90.45242 136.55228 L90.50485 136.97449 L90.54921 137.40040 L90.58573 137.82983 L89.85707 138.19067 L89.53765 137.90133 L89.22578 137.60790 L88.92175 137.31029 L88.62590 137.00841 L88.33865 136.70212 L88.02139 136.85094 L87.50648 137.08773 L87.55446 137.50489 L87.59352 137.92576 L87.62403 138.35011 L87.64628 138.77775 L87.66054 139.20850 L86.91418 139.53115 L86.61016 139.22566 L86.31389 138.91648 L86.02567 138.60354 L85.74584 138.28675 L85.47482 137.96601 L85.18157 138.08557 L84.65521 138.29568 L84.68177 138.71475 L84.69923 139.13707 L84.70798 139.56243 L84.70831 139.99065 L84.70050 140.42156 L83.93860 140.70558 L83.65062 140.38493 L83.37057 140.06099 L83.09874 139.73370 L82.83550 139.40300 L82.58125 139.06881 L82.38560 139.13732 L81.84951 139.32118 L81.85534 139.74105 L81.85192 140.16372 L81.83965 140.58899 L81.81884 141.01670 L81.78975 141.44670 L81.01476 141.69275 L80.74296 141.35827 L80.47925 141.02089 L80.22392 140.68058 L79.97733 140.33728 L79.73990 139.99094 L79.36755 140.10039 L78.82257 140.25593 L78.80640 140.67553 L78.78085 141.09744 L78.74633 141.52148 L78.70314 141.94752 L78.65158 142.37540 L77.86476 142.58052 L77.61086 142.23227 L77.36517 141.88154 L77.12802 141.52833 L76.89974 141.17259 L76.68078 140.81429 L76.40858 140.87928 L75.85643 141.00705 L75.81906 141.42530 L75.77220 141.84538 L75.71627 142.26713 L75.65159 142.69043 L75.57845 143.11516 L74.78226 143.28022 L74.54630 142.91957 L74.31867 142.55687 L74.09969 142.19210 L73.88970 141.82527 L73.68914 141.45635 L73.39830 141.51038 L72.84037 141.60991 L72.78178 142.02571 L72.71362 142.44286 L72.63632 142.86123 L72.55020 143.28069 L72.45555 143.70116 L71.65200 143.82552 L71.43468 143.45333 L71.22579 143.07952 L71.02564 142.70410 L70.83458 142.32707 L70.65304 141.94842 L70.34785 141.98916 L69.78556 142.06008 L69.70582 142.47235 L69.61646 142.88548 L69.51790 143.29935 L69.41048 143.71387 L69.29449 144.12896 L68.48564 144.21214 L68.28760 143.82935 L68.09807 143.44536 L67.91734 143.06021 L67.74577 142.67391 L67.58380 142.28650 L67.26885 142.31224 L66.70367 142.35429 L66.60293 142.76194 L66.49254 143.16995 L66.37293 143.57824 L66.24443 143.98672 L66.10735 144.39532 L65.29531 144.43699 L65.11712 144.04457 L64.94749 143.65138 L64.78671 143.25749 L64.63514 142.86292 L64.49320 142.46772 L64.17328 142.47742 L63.60669 142.49045 L63.48519 142.89240 L63.35404 143.29422 L63.21366 143.69584 L63.06440 144.09720 L62.90656 144.49824 L62.09344 144.49824 L61.93560 144.09720 L61.78634 143.69584 L61.64596 143.29422 L61.51481 142.89240 L61.39331 142.49045 L61.07331 142.48375 L60.50680 142.46772 L60.36486 142.86292 L60.21329 143.25749 L60.05251 143.65138 L59.88288 144.04457 L59.70469 144.43699 L58.89265 144.39532 L58.75557 143.98672 L58.62707 143.57824 L58.50746 143.16995 L58.39707 142.76194 L58.29633 142.35429 L57.98116 142.33150 L57.41620 142.28650 L57.25423 142.67391 L57.08266 143.06021 L56.90193 143.44536 L56.71240 143.82935 L56.51436 144.21214 L55.70551 144.12896 L55.58952 143.71387 L55.48210 143.29935 L55.38354 142.88548 L55.29418 142.47235 L55.21444 142.06008 L54.90889 142.02221 L54.34696 141.94842 L54.16542 142.32707 L53.97436 142.70410 L53.77421 143.07952 L53.56532 143.45333 L53.34800 143.82552 L52.54445 143.70116 L52.44980 143.28069 L52.36368 142.86123 L52.28638 142.44286 L52.21822 142.02571 L52.15963 141.60991 L51.86830 141.55861 L51.31086 141.45635 L51.11030 141.82527 L50.90031 142.19210 L50.68133 142.55687 L50.45370 142.91957 L50.21774 143.28022 L49.42155 143.11516 L49.34841 142.69043 L49.28373 142.26713 L49.22780 141.84538 L49.18094 141.42530 L49.14357 141.00705 L48.87078 140.94461 L48.31922 140.81429 L48.10026 141.17259 L47.87198 141.52833 L47.63483 141.88154 L47.38914 142.23227 L47.13524 142.58052 L46.34842 142.37540 L46.29686 141.94752 L46.25367 141.52148 L46.21915 141.09744 L46.19360 140.67553 L46.17743 140.25593 L45.80407 140.14997 L45.26010 139.99094 L45.02267 140.33728 L44.77608 140.68058 L44.52075 141.02089 L44.25704 141.35827 L43.98524 141.69275 L43.21025 141.44670 L43.18116 141.01670 L43.16035 140.58899 L43.14808 140.16372 L43.14466 139.74105 L43.15049 139.32118 L42.95420 139.25451 L42.41875 139.06881 L42.16450 139.40300 L41.90126 139.73370 L41.62943 140.06099 L41.34938 140.38493 L41.06140 140.70558 L40.29950 140.42156 L40.29169 139.99065 L40.29202 139.56243 L40.30077 139.13707 L40.31823 138.71475 L40.34479 138.29568 L40.05042 138.17888 L39.52518 137.96601 L39.25416 138.28675 L38.97433 138.60354 L38.68611 138.91648 L38.38984 139.22566 L38.08582 139.53115 L37.33946 139.20850 L37.35372 138.77775 L37.37597 138.35011 L37.40648 137.92576 L37.44554 137.50489 L37.49352 137.08773 L37.17488 136.94189 L36.66135 136.70212 L36.37410 137.00841 L36.07825 137.31029 L35.77422 137.60790 L35.46235 137.90133 L35.14293 138.19067 L34.41427 137.82983 L34.45079 137.40040 L34.49515 136.97449 L34.54758 136.55228 L34.60836 136.13400 L34.67787 135.71988 L34.43236 135.59194 L33.93160 135.32653 L33.62924 135.61791 L33.31852 135.90445 L32.99983 136.18632 L32.67353 136.46362 L32.33990 136.73645 L31.63040 136.33925 L31.68858 135.91221 L31.75441 135.48908 L31.82810 135.07006 L31.90995 134.65538 L32.00029 134.24530 L31.68121 134.05761 L31.19496 133.76648 L30.87783 134.04172 L30.55261 134.31170 L30.21968 134.57658 L29.87938 134.83652 L29.53199 135.09160 L28.84414 134.65799 L28.92448 134.23456 L29.01225 133.81544 L29.10767 133.40083 L29.21100 132.99097 L29.32257 132.58615 L29.03750 132.39792 L28.56692 132.08208 L28.23601 132.34059 L27.89729 132.59342 L27.55113 132.84077 L27.19787 133.08280 L26.83778 133.31962 L26.17323 132.85109 L26.27531 132.43237 L26.38459 132.01833 L26.50128 131.60920 L26.62562 131.20522 L26.75794 130.80670 L26.56070 130.66156 L26.10650 130.32258 L25.76308 130.56422 L25.41214 130.79980 L25.05405 131.02953 L24.68912 131.25359 L24.31764 131.47211 L23.67735 130.97093 L23.80024 130.55784 L23.93009 130.14978 L24.06709 129.74700 L24.21148 129.34974 L24.36356 128.95834 L24.16814 128.79885 L23.73150 128.43754 L23.37640 128.66165 L23.01409 128.87934 L22.64493 129.09084 L22.26924 129.29632 L21.88727 129.49594 L21.27291 128.96330 L21.41635 128.55689 L21.56649 128.15585 L21.72351 127.76044 L21.88763 127.37093 L22.05914 126.98764 L21.75396 126.71122 L21.33699 126.32737 L20.97056 126.53244 L20.59727 126.73071 L20.21747 126.92244 L19.83145 127.10781 L19.43949 127.28700 L18.85408 126.72268 L19.01877 126.32440 L19.18986 125.93185 L19.36752 125.54528 L19.55197 125.16496 L19.74346 124.79125 L19.53943 124.58627 L19.14248 124.18176 L18.76611 124.36797 L18.38324 124.54704 L17.99420 124.71925 L17.59928 124.88480 L17.19873 125.04387 L16.64271 124.45057 L16.82739 124.06117 L17.01818 123.67780 L17.21523 123.30074 L17.41873 122.93027 L17.62894 122.56676 L17.46258 122.38185 L17.08638 121.95797 L16.70116 122.12510 L16.30981 122.28478 L15.91263 122.43729 L15.50992 122.58286 L15.10190 122.72167 L14.57628 122.10129 L14.78024 121.72161 L14.98998 121.34828 L15.20566 120.98156 L15.42746 120.62175 L15.65560 120.26922 L15.48019 120.05332 L15.12590 119.61096 L14.73273 119.75841 L14.33380 119.89810 L13.92942 120.03033 L13.51986 120.15535 L13.10535 120.27336 L12.61177 119.62719 L12.83466 119.25832 L13.06301 118.89607 L13.29695 118.54072 L13.53666 118.19258 L13.78233 117.85203 L13.56859 117.55950 L13.23775 117.09934 L12.83745 117.22616 L12.43180 117.34494 L12.02110 117.45599 L11.60560 117.55957 L11.18552 117.65588 L10.72617 116.98495 L10.96792 116.62815 L11.21478 116.27825 L11.46687 115.93553 L11.72433 115.60031 L11.98736 115.27299 L11.78784 114.96781 L11.48138 114.49107 L11.07503 114.59691 L10.66375 114.69445 L10.24783 114.78400 L9.82751 114.86583 L9.40299 114.94018 L8.97914 114.24628 L9.23911 113.90253 L9.50382 113.56593 L9.77339 113.23678 L10.04793 112.91540 L10.32762 112.60220 L10.23057 112.43596 L9.94790 111.94474 L9.53684 112.03048 L9.12127 112.10768 L8.70145 112.17669 L8.27762 112.23777 L7.84995 112.29117 L7.46071 111.57727 L7.73726 111.24671 L8.01820 110.92354 L8.30361 110.60803 L8.59361 110.30053 L8.88836 110.00145 L8.71479 109.66621 L8.45815 109.16090 L8.04317 109.22507 L7.62414 109.28048 L7.20129 109.32748 L6.77484 109.36635 L6.34498 109.39736 L5.99353 108.66412 L6.28696 108.34844 L6.58438 108.04037 L6.88587 107.74019 L7.19153 107.44825 L7.50148 107.16495 L7.40049 106.94277 L7.16943 106.42526 L6.75176 106.46861 L6.33048 106.50300 L5.90582 106.52879 L5.47796 106.54631 L5.04708 106.55578 L4.73273 105.80588 L5.04157 105.50528 L5.35402 105.21246 L5.67014 104.92772 L5.99002 104.65143 L6.31375 104.38399 L6.16788 104.01380 L5.96433 103.48487 L5.54496 103.50621 L5.12246 103.51842 L4.69702 103.52188 L4.26884 103.51688 L3.83805 103.50371 L3.56353 102.73834 L3.88774 102.45437 L4.21514 102.17837 L4.54578 101.91063 L4.87973 101.65152 L5.21706 101.40146 L5.13531 101.15799 L4.95857 100.61951 L4.53866 100.61977 L4.11607 100.61076 L3.69100 100.59285 L3.26361 100.56637 L2.83403 100.53158 L2.59828 99.75339 L2.93633 99.48606 L3.27718 99.22684 L3.62084 98.97604 L3.96738 98.73403 L4.31684 98.50121 L4.22754 98.18241 L4.07872 97.63555 L3.65935 97.61422 L3.23779 97.58348 L2.81421 97.54373 L2.38874 97.49531 L1.96152 97.43848 L1.76610 96.64919 L2.11746 96.39960 L2.47118 96.15825 L2.82729 95.92546 L3.18582 95.70159 L3.54679 95.48705 L3.48014 95.19165 L3.35939 94.63792 L2.94165 94.59524 L2.52221 94.54306 L2.10120 94.48177 L1.67875 94.41172 L1.25498 94.33319 L1.10004 93.53498 L1.46366 93.30361 L1.82923 93.08061 L2.19674 92.86627 L2.56620 92.66096 L2.93764 92.46510 L2.87995 92.13023 L2.78792 91.57101 L2.37294 91.50684 L1.95674 91.43310 L1.53945 91.35018 L1.12118 91.25844 L0.70202 91.15816 L0.58846 90.35301 L0.96353 90.14071 L1.34011 89.93685 L1.71818 89.74176 L2.09775 89.55577 L2.47879 89.37933 L2.44060 89.06033 L2.37736 88.49713 L1.96621 88.41177 L1.55434 88.31678 L1.14185 88.21258 L0.72883 88.09952 L0.31537 87.97788 L0.24324 87.16797 L0.62869 86.97518 L1.01523 86.79090 L1.40281 86.61544 L1.79141 86.44916 L2.18100 86.29248 L2.16588 86.07277 L2.13065 85.50712 L1.72425 85.40148 L1.31760 85.28618 L0.91078 85.16165 L0.50388 85.02824 L0.09696 84.88624 L0.06509 84.07375 L0.45963 83.90031 L0.85483 83.73543 L1.25064 83.57941 L1.64701 83.43261 L2.04389 83.29545 L2.03658 82.87638 L2.03131 82.30966 L1.63106 82.18267 L1.23108 82.04603 L0.83142 81.90016 L0.43214 81.74542 L0.03330 81.58210 L0.04444 80.76906 L0.44760 80.61673 L0.85097 80.47298 L1.25448 80.33811 L1.65805 80.21248 L2.06163 80.09650 L2.07165 79.80535 L2.09517 79.23910 L1.70188 79.09195 L1.30935 78.93517 L0.91762 78.76920 L0.52671 78.59438 L0.13667 78.41102 L0.18908 77.59960 L0.59946 77.46793 L1.00960 77.34485 L1.41944 77.23064 L1.82887 77.12566 L2.23782 77.03033 L2.25668 76.80799 L2.30828 76.24360 L1.92279 76.07711 L1.53852 75.90104 L1.15551 75.71582 L0.77376 75.52181 L0.39332 75.31931 L0.48594 74.51149 L0.90235 74.40036 L1.31810 74.29779 L1.73310 74.20407 L2.14724 74.11955 L2.56042 74.04463 L2.61061 73.67657 L2.69154 73.11563 L2.31525 72.92928 L1.94068 72.73343 L1.56783 72.52851 L1.19671 72.31488 L0.82733 72.09284 L0.96191 71.29094 L1.38355 71.20165 L1.80408 71.12088 L2.22339 71.04891 L2.64138 70.98608 L3.05789 70.93279 L3.10595 70.67842 L3.21496 70.12226 L2.84850 69.91724 L2.48425 69.70282 L2.12217 69.47943 L1.76225 69.24742 L1.40449 69.00710 L1.57919 68.21297 L2.00477 68.14499 L2.42883 68.08544 L2.85123 68.03463 L3.27184 67.99287 L3.69051 67.96058 L3.77778 67.60069 L3.91561 67.05096 L3.56032 66.82714 L3.20773 66.59404 L2.85777 66.35209 L2.51043 66.10166 L2.16566 65.84303 L2.38148 65.05908 L2.81003 65.01335 L3.23662 64.97597 L3.66109 64.94723 L4.08331 64.92743 L4.50309 64.91698 L4.59297 64.61530 L4.75874 64.07334 L4.41537 63.83164 L4.07516 63.58080 L3.73804 63.32127 L3.40396 63.05339 L3.07288 62.77747 L3.32853 62.00559 L3.75886 61.98184 L4.18679 61.96633 L4.61218 61.95934 L5.03486 61.96117 L5.45462 61.97221 L5.55343 61.69339 L5.74655 61.16056 L5.41591 60.90171 L5.08890 60.63390 L4.76541 60.35756 L4.44539 60.07304 L4.12877 59.78064 L4.42333 59.02276 L4.85431 59.02092 L5.28248 59.02720 L5.70768 59.04184 L6.12971 59.06516 L6.54837 59.09753 L6.67566 58.78942 L6.89594 58.26724 L6.57907 57.99171 L6.26627 57.70742 L5.95744 57.41480 L5.65248 57.11419 L5.35132 56.80588 L5.68450 56.06416 L6.11501 56.08451 L6.54229 56.11281 L6.96616 56.14932 L7.38644 56.19433 L7.80288 56.24821 L7.91494 56.01182 L8.16120 55.50138 L7.85858 55.21027 L7.56047 54.91061 L7.26674 54.60283 L6.97728 54.28726 L6.69201 53.96420 L7.06207 53.24017 L7.49100 53.28214 L7.91632 53.33190 L8.33783 53.38968 L8.75531 53.45576 L9.16851 53.53051 L9.33389 53.22319 L9.60622 52.72616 L9.31907 52.41978 L9.03686 52.10511 L8.75944 51.78255 L8.48670 51.45243 L8.21852 51.11505 L8.62553 50.41113 L9.05172 50.47523 L9.47389 50.54692 L9.89185 50.62642 L10.30535 50.71401 L10.71414 50.81004 L10.85030 50.58529 L11.14729 50.10260 L10.87591 49.78216 L10.60989 49.45370 L10.34905 49.11759 L10.09325 48.77417 L9.84239 48.42372 L10.28429 47.74117 L10.70671 47.82662 L11.12475 47.91946 L11.53817 48.01988 L11.94675 48.12817 L12.35019 48.24463 L12.52866 47.98122 L12.84998 47.51436 L12.59537 47.18045 L12.34652 46.83879 L12.10324 46.48976 L11.86536 46.13369 L11.63278 45.77086 L12.10906 45.11183 L12.52655 45.21881 L12.93928 45.33293 L13.34702 45.45440 L13.74951 45.58347 L14.14646 45.72044 L14.29122 45.52847 L14.63545 45.07824 L14.39783 44.73203 L14.16635 44.37837 L13.94080 44.01763 L13.72101 43.65013 L13.50683 43.27613 L14.01542 42.64171 L14.42705 42.76940 L14.83357 42.90399 L15.23473 43.04567 L15.63028 43.19467 L16.01989 43.35129 L16.26153 43.06276 L16.62878 42.63111 L16.40955 42.27297 L16.19684 41.90771 L15.99042 41.53570 L15.79010 41.15723 L15.59572 40.77256 L16.13673 40.16554 L16.54114 40.31454 L16.94008 40.47016 L17.33330 40.63257 L17.72053 40.80201 L18.10144 40.97875 L18.29479 40.77063 L18.68344 40.35813 L18.48262 39.98935 L18.28869 39.61379 L18.10138 39.23179 L17.92049 38.84366 L17.74585 38.44965 L18.31690 37.87081 L18.71325 38.04010 L19.10379 38.21573 L19.48829 38.39785 L19.86644 38.58669 L20.23790 38.78249 L20.42872 38.59685 L20.83765 38.20445 L20.65566 37.82603 L20.48089 37.44117 L20.31305 37.05023 L20.15193 36.65348 L19.99736 36.25117 L20.59684 35.70183 L20.98415 35.89086 L21.36536 36.08593 L21.74019 36.28719 L22.10836 36.49483 L22.46949 36.70909 L22.76539 36.44945 L23.19435 36.07904 L23.03247 35.69159 L22.87812 35.29810 L22.73103 34.89889 L22.59095 34.49423 L22.45769 34.08436 L23.08517 33.56723 L23.46203 33.77632 L23.83248 33.99112 L24.19624 34.21177 L24.55300 34.43844 L24.90239 34.67135 L25.18760 34.44633 L25.63522 34.09872 L25.49369 33.70338 L25.36000 33.30240 L25.23384 32.89608 L25.11498 32.48469 L25.00320 32.06846 L25.65670 31.58462 L26.02219 31.81302 L26.38098 32.04678 L26.73278 32.28603 L27.07728 32.53093 L27.41410 32.78169 L27.55522 32.68146 L28.01927 32.35611 L27.89721 31.95433 L27.78326 31.54730 L27.67709 31.13531 L27.57845 30.71861 L27.48713 30.29742 L28.16347 29.84607 L28.51738 30.09203 L28.86432 30.34303 L29.20402 30.59917 L29.53616 30.86060 L29.86034 31.12750 L30.15403 30.94037 L30.63429 30.63946 L30.53317 30.23190 L30.44042 29.81952 L30.35570 29.40260 L30.27874 28.98135 L30.20932 28.55600 L30.90810 28.14023 L31.24881 28.40417 L31.58231 28.67277 L31.90831 28.94613 L32.22649 29.22439 L32.53643 29.50769 L32.86990 29.31885 L33.36524 29.04347 L33.28557 28.63118 L33.21450 28.21452 L33.15170 27.79373 L33.09688 27.36904 L33.04980 26.94063 L33.76936 26.56197 L34.09580 26.84337 L34.41480 27.12904 L34.72606 27.41908 L35.02925 27.71359 L35.32395 28.01272 L35.57772 27.88579 L36.08637 27.63585 L36.02768 27.22006 L35.97781 26.80033 L35.93641 26.37690 L35.90316 25.94998 L35.87784 25.51974 L36.61566 25.17801 L36.92743 25.47557 L37.23155 25.77704 L37.52772 26.08247 L37.81560 26.39196 L38.09477 26.70563 L38.39392 26.57463 L38.91474 26.35114 L38.87748 25.93288 L38.84924 25.51114 L38.82963 25.08615 L38.81835 24.65808 L38.81516 24.22711 L39.56955 23.92372 L39.86563 24.23691 L40.15387 24.55359 L40.43396 24.87383 L40.70557 25.19769 L40.96827 25.52528 L41.15876 25.45306 L41.68997 25.25553 L41.67339 24.83595 L41.66598 24.41333 L41.66736 23.98789 L41.67721 23.55978 L41.69528 23.12918 L42.46372 22.86337 L42.74399 23.19078 L43.01625 23.52130 L43.28021 23.85496 L43.53551 24.19183 L43.78173 24.53198 L44.17552 24.40527 L44.71641 24.23606 L44.72201 23.81619 L44.73692 23.39377 L44.76076 22.96899 L44.79320 22.54201 L44.83398 22.11295 L45.61538 21.88809 L45.87797 22.22984 L46.13241 22.57426 L46.37839 22.92140 L46.61555 23.27128 L46.84346 23.62395 L47.10485 23.55451 L47.65358 23.41279 L47.68035 22.99373 L47.71654 22.57261 L47.76177 22.14957 L47.81571 21.72476 L47.87807 21.29831 L48.66981 21.11314 L48.91484 21.46769 L49.15158 21.82452 L49.37974 22.18361 L49.59895 22.54500 L49.80879 22.90872 L50.14460 22.83764 L50.69992 22.72444 L50.74828 22.30732 L50.80618 21.88862 L50.87319 21.46849 L50.94898 21.04703 L51.03328 20.62437 L51.83353 20.48032 L52.05992 20.84706 L52.27792 21.21562 L52.48724 21.58602 L52.68750 21.95825 L52.87828 22.33232 L53.15508 22.28837 L53.71542 22.20341 L53.78482 21.78927 L53.86382 21.37404 L53.95200 20.95783 L54.04902 20.54075 L54.15459 20.12289 L54.96111 20.01951 L55.16865 20.39723 L55.36773 20.77636 L55.55804 21.15687 L55.73921 21.53875 L55.91083 21.92199 L56.18883 21.89217 L56.75275 21.83566 L56.84301 21.42557 L56.94291 21.01486 L57.05203 20.60364 L57.17002 20.19201 L57.29659 19.78003 L58.10730 19.71757 L58.29548 20.10530 L58.47513 20.49401 L58.64594 20.88366 L58.80757 21.27422 L58.95958 21.66565 L59.23689 21.65003 L59.80294 21.62210 L59.91382 21.21709 L60.03435 20.81196 L60.16412 20.40678 L60.30277 20.00164 L60.45000 19.59658 L61.26283 19.57519 L61.43117 19.97194 L61.59094 20.36923 L61.74184 20.76702 L61.88352 21.16525 L62.01555 21.56386 L62.41771 21.56198 L62.98445 21.56386 L63.11648 21.16525 L63.25816 20.76702 L63.40906 20.36923 L63.56883 19.97194 L63.73717 19.57519 L64.55000 19.59658 L64.69723 20.00164 L64.83588 20.40678 L64.96565 20.81196 L65.08618 21.21709 L65.19706 21.62210 L65.47450 21.63512 L66.04042 21.66565 L66.19243 21.27422 L66.35406 20.88366 L66.52487 20.49401 L66.70452 20.10530 L66.89270 19.71757 L67.70341 19.78003 L67.82998 20.19201 L67.94797 20.60364 L68.05709 21.01486 L68.15699 21.42557 L68.24725 21.83566 L68.52552 21.86288 L69.08917 21.92199 L69.26079 21.53875 L69.44196 21.15687 L69.63227 20.77636 L69.83135 20.39723 L70.03889 20.01951 L70.84541 20.12289 L70.95098 20.54075 L71.04800 20.95783 L71.13618 21.37404 L71.21518 21.78927 L71.28458 22.20341 L71.56178 22.24476 L72.12172 22.33232 L72.31250 21.95825 L72.51276 21.58602 L72.72208 21.21562 L72.94008 20.84706 L73.16647 20.48032 L73.96672 20.62437 L74.05102 21.04703 L74.12681 21.46849 L74.19382 21.88862 L74.25172 22.30732 L74.30008 22.72444 L74.63653 22.79237 L75.19121 22.90872 L75.40105 22.54500 L75.62026 22.18361 L75.84842 21.82452 L76.08516 21.46769 L76.33019 21.11314 L77.12193 21.29831 L77.18429 21.72476 L77.23823 22.14957 L77.28346 22.57261 L77.31965 22.99373 L77.34642 23.41279 L77.60844 23.47978 L78.15654 23.62395 L78.38445 23.27128 L78.62161 22.92140 L78.86759 22.57426 L79.12203 22.22984 L79.38462 21.88809 L80.16602 22.11295 L80.20680 22.54201 L80.23924 22.96899 L80.26308 23.39377 L80.27799 23.81619 L80.28359 24.23606 L80.67854 24.35907 L81.21827 24.53198 L81.46449 24.19183 L81.71979 23.85496 L81.98375 23.52130 L82.25601 23.19078 L82.53628 22.86337 L83.30472 23.12918 L83.32279 23.55978 L83.33264 23.98789 L83.33402 24.41333 L83.32661 24.83595 L83.31003 25.25553 L83.50120 25.32596 L84.03173 25.52528 L84.29443 25.19769 L84.56604 24.87383 L84.84613 24.55359 L85.13437 24.23691 L85.43045 23.92372 L86.18484 24.22711 L86.18165 24.65808 L86.17037 25.08615 L86.15076 25.51114 L86.12252 25.93288 L86.08526 26.35114 L86.38562 26.47932 L86.90523 26.70563 L87.18440 26.39196 L87.47228 26.08247 L87.76845 25.77704 L88.07257 25.47557 L88.38434 25.17801 L89.12216 25.51974 L89.09684 25.94998 L89.06359 26.37690 L89.02219 26.80033 L88.97232 27.22006 L88.91363 27.63585 L89.16858 27.76038 L89.67605 28.01272 L89.97075 27.71359 L90.27394 27.41908 L90.58520 27.12904 L90.90420 26.84337 L91.23064 26.56197 L91.95020 26.94063 L91.90312 27.36904 L91.84830 27.79373 L91.78550 28.21452 L91.71443 28.63118 L91.63476 29.04347 L91.96999 29.22917 L92.46357 29.50769 L92.77351 29.22439 L93.09169 28.94613 L93.41769 28.67277 L93.75119 28.40417 L94.09190 28.14023 L94.79068 28.55600 L94.72126 28.98135 L94.64430 29.40260 L94.55958 29.81952 L94.46683 30.23190 L94.36571 30.63946 L94.66114 30.82382 L95.13966 31.12750 L95.46384 30.86060 L95.79598 30.59917 L96.13568 30.34303 L96.48262 30.09203 L96.83653 29.84607 L97.51287 30.29742 L97.42155 30.71861 L97.32291 31.13531 L97.21674 31.54730 L97.10279 31.95433 L96.98073 32.35611 L97.12277 32.45501 L97.58590 32.78169 L97.92272 32.53093 L98.26722 32.28603 L98.61902 32.04678 L98.97781 31.81302 L99.34330 31.58462 L99.99680 32.06846 L99.88502 32.48469 L99.76616 32.89608 L99.64000 33.30240 L99.50631 33.70338 L99.36478 34.09872 L99.65208 34.32106 L100.09761 34.67135 L100.44700 34.43844 L100.80376 34.21177 L101.16752 33.99112 L101.53797 33.77632 L101.91483 33.56723 L102.54231 34.08436 L102.40905 34.49423 L102.26897 34.89889 L102.12188 35.29810 L101.96753 35.69159 L101.80565 36.07904 L102.10398 36.33590 L102.53051 36.70909 L102.89164 36.49483 L103.25981 36.28719 L103.63464 36.08593 L104.01585 35.89086 L104.40316 35.70183 L105.00264 36.25117 L104.84807 36.65348 L104.68695 37.05023 L104.51911 37.44117 L104.34434 37.82603 L104.16235 38.20445 L104.35490 38.38830 L104.76210 38.78249 L105.13356 38.58669 L105.51171 38.39785 L105.89621 38.21573 L106.28675 38.04010 L106.68310 37.87081 L107.25415 38.44965 L107.07951 38.84366 L106.89862 39.23179 L106.71131 39.61379 L106.51738 39.98935 L106.31656 40.35813 L106.51185 40.56444 L106.89856 40.97875 L107.27947 40.80201 L107.66670 40.63257 L108.05992 40.47016 L108.45886 40.31454 L108.86327 40.16554 L109.40428 40.77256 L109.20990 41.15723 L109.00958 41.53570 L108.80316 41.90771 L108.59045 42.27297 L108.37122 42.63111 L108.61555 42.91736 L108.98011 43.35129 L109.36972 43.19467 L109.76527 43.04567 L110.16643 42.90399 L110.57295 42.76940 L110.98458 42.64171 L111.49317 43.27613 L111.27899 43.65013 L111.05920 44.01763 L110.83365 44.37837 L110.60217 44.73203 L110.36455 45.07824 L110.51110 45.26885 L110.85354 45.72044 L111.25049 45.58347 L111.65298 45.45440 L112.06072 45.33293 L112.47345 45.21881 L112.89094 45.11183 L113.36722 45.77086 L113.13464 46.13369 L112.89676 46.48976 L112.65348 46.83879 L112.40463 47.18045 L112.15002 47.51436 L112.33095 47.77609 L112.64981 48.24463 L113.05325 48.12817 L113.46183 48.01988 L113.87525 47.91946 L114.29329 47.82662 L114.71571 47.74117 L115.15761 48.42372 L114.90675 48.77417 L114.65095 49.11759 L114.39011 49.45370 L114.12409 49.78216 L113.85271 50.10260 L113.99097 50.32605 L114.28586 50.81004 L114.69465 50.71401 L115.10815 50.62642 L115.52611 50.54692 L115.94828 50.47523 L116.37447 50.41113 L116.78148 51.11505 L116.51330 51.45243 L116.24056 51.78255 L115.96314 52.10511 L115.68093 52.41978 L115.39378 52.72616 L115.56203 53.03192 L115.83149 53.53051 L116.24469 53.45576 L116.66217 53.38968 L117.08368 53.33190 L117.50900 53.28214 L117.93793 53.24017 L118.30799 53.96420 L118.02272 54.28726 L117.73326 54.60283 L117.43953 54.91061 L117.14142 55.21027 L116.83880 55.50138 L116.95307 55.73670 L117.19712 56.24821 L117.61356 56.19433 L118.03384 56.14932 L118.45771 56.11281 L118.88499 56.08451 L119.31550 56.06416 L119.64868 56.80588 L119.34752 57.11419 L119.04256 57.41480 L118.73373 57.70742 L118.42093 57.99171 L118.10406 58.26724 L118.23423 58.57414 L118.45163 59.09753 L118.87029 59.06516 L119.29232 59.04184 L119.71752 59.02720 L120.14569 59.02092 L120.57667 59.02276 L120.87123 59.78064 L120.55461 60.07304 L120.23459 60.35756 L119.91110 60.63390 L119.58409 60.90171 L119.25345 61.16056 L119.35487 61.43845 L119.54538 61.97221 L119.96514 61.96117 L120.38782 61.95934 L120.81321 61.96633 L121.24114 61.98184 L121.67147 62.00559 L121.92712 62.77747 L121.59604 63.05339 L121.26196 63.32127 L120.92484 63.58080 L120.58463 63.83164 L120.24126 64.07334 L120.33396 64.37417 L120.49691 64.91698 L120.91669 64.92743 L121.33891 64.94723 L121.76338 64.97597 L122.18997 65.01335 L122.61852 65.05908 L122.83434 65.84303 L122.48957 66.10166 L122.14223 66.35209 L121.79227 66.59404 L121.43968 66.82714 L121.08439 67.05096 L121.17503 67.41001 L121.30949 67.96058 L121.72816 67.99287 L122.14877 68.03463 L122.57117 68.08544 L122.99523 68.14499 L123.42081 68.21297 L123.59551 69.00710 L123.23775 69.24742 L122.87783 69.47943 L122.51575 69.70282 L122.15150 69.91724 L121.78504 70.12226 L121.83548 70.37617 L121.94211 70.93279 L122.35862 70.98608 L122.77661 71.04891 L123.19592 71.12088 L123.61645 71.20165 L124.03809 71.29094 L124.17267 72.09284 L123.80329 72.31488 L123.43217 72.52851 L123.05932 72.73343 L122.68475 72.92928 L122.30846 73.11563 L122.36210 73.48321 L122.43958 74.04463 L122.85276 74.11955 L123.26690 74.20407 L123.68190 74.29779 L124.09765 74.40036 L124.51406 74.51149 L124.60668 75.31931 L124.22624 75.52181 L123.84449 75.71582 L123.46148 75.90104 L123.07721 76.07711 L122.69172 76.24360 L122.71266 76.46575 L122.76218 77.03033 L123.17113 77.12566 L123.58056 77.23064 L123.99040 77.34485 L124.40054 77.46793 L124.81092 77.59960 L124.86333 78.41102 L124.47329 78.59438 L124.08238 78.76920 L123.69065 78.93517 L123.29812 79.09195 L122.90483 79.23910 L122.91758 79.53014 L122.93837 80.09650 L123.34195 80.21248 L123.74552 80.33811 L124.14903 80.47298 L124.55240 80.61673 L124.95556 80.76906 L124.96670 81.58210 L124.56786 81.74542 L124.16858 81.90016 L123.76892 82.04603 L123.36894 82.18267 L122.96869 82.30966 L122.96531 82.72878 z"/>
<path stroke="#000000" d="M 0.00000 19.53125 L 125.00000 19.53125 L 125.00000 144.53125 L 0.00000 144.53125 z"/>
<path stroke="#000000" d="M 3.34821 161.83036 L 4.46429 162.38839 L 6.13839 164.06250 L 6.13839 152.34375"/>
<path stroke="#000000" d="M 13.39286 161.27232 L 13.39286 161.83036 L 13.95089 162.94643 L 14.50893 163.50446 L 15.62500 164.06250 L 17.85714 164.06250 L 18.97321 163.50446 L 19.53125 162.94643 L 20.08929 161.83036 L 20.08929 160.71429 L 19.53125 159.59821 L 18.41518 157.92411 L 12.83482 152.34375 L 20.64732 152.34375"/>
<path stroke="#000000" d="M 30.69196 164.06250 L 25.11161 164.06250 L 24.55357 159.04018 L 25.11161 159.59821 L 26.78571 160.15625 L 28.45982 160.15625 L 30.13393 159.59821 L 31.25000 158.48214 L 31.80804 156.80804 L 31.80804 155.69196 L 31.25000 154.01786 L 30.13393 152.90179 L 28.45982 152.34375 L 26.78571 152.34375 L 25.11161 152.90179 L 24.55357 153.45982 L 23.99554 154.57589"/>
<path stroke="#000000" d=""/>
<path stroke="#000000" d="M 44.08482 160.15625 L 50.22321 152.34375 M 50.22321 160.15625 L 44.08482 152.34375"/>
<path stroke="#000000" d=""/>
<path stroke="#000000" d="M 64.17411 161.83036 L 65.29018 162.38839 L 66.96429 164.06250 L 66.96429 152.34375"/>
<path stroke="#000000" d="M 74.21875 161.27232 L 74.21875 161.83036 L 74.77679 162.94643 L 75.33482 163.50446 L 76.45089 164.06250 L 78.68304 164.06250 L 79.79911 163.50446 L 80.35714 162.94643 L 80.91518 161.83036 L 80.91518 160.71429 L 80.35714 159.59821 L 79.24107 157.92411 L 73.66071 152.34375 L 81.47321 152.34375"/>
<path stroke="#000000" d="M 91.51786 164.06250 L 85.93750 164.06250 L 85.37946 159.04018 L 85.93750 159.59821 L 87.61161 160.15625 L 89.28571 160.15625 L 90.95982 159.59821 L 92.07589 158.48214 L 92.63393 156.80804 L 92.63393 155.69196 L 92.07589 154.01786 L 90.95982 152.90179 L 89.28571 152.34375 L 87.61161 152.34375 L 85.93750 152.90179 L 85.37946 153.45982 L 84.82143 154.57589"/>
</svg>